<?xml version="1.0" encoding="UTF-8" standalone="no"?>
<!-- Created with Inkscape (http://www.inkscape.org/) -->

<svg
   xmlns:dc="http://purl.org/dc/elements/1.1/"
   xmlns:cc="http://creativecommons.org/ns#"
   xmlns:rdf="http://www.w3.org/1999/02/22-rdf-syntax-ns#"
   xmlns:svg="http://www.w3.org/2000/svg"
   xmlns="http://www.w3.org/2000/svg"
   xmlns:sodipodi="http://sodipodi.sourceforge.net/DTD/sodipodi-0.dtd"
   xmlns:inkscape="http://www.inkscape.org/namespaces/inkscape"
   width="656.80029"
   height="200.00009"
   viewBox="0 0 656.80029 200.00011"
   id="svg2"
   version="1.1"
   inkscape:version="0.91 r13725"
   sodipodi:docname="logo-header.svg"
   inkscape:export-filename="/tmp/logo.png"
   inkscape:export-xdpi="90"
   inkscape:export-ydpi="90">
  <defs
     id="defs4">
    <clipPath
       id="clipPath4214"
       clipPathUnits="userSpaceOnUse">
      <path
         inkscape:connector-curvature="0"
         id="path4216"
         d="M 0,612 792,612 792,0 0,0 0,612 Z" />
    </clipPath>
  </defs>
  <sodipodi:namedview
     id="base"
     pagecolor="#ffffff"
     bordercolor="#666666"
     borderopacity="1.0"
     inkscape:pageopacity="0.0"
     inkscape:pageshadow="2"
     inkscape:zoom="2.8"
     inkscape:cx="125.68094"
     inkscape:cy="84.705911"
     inkscape:document-units="px"
     inkscape:current-layer="layer1"
     showgrid="false"
     fit-margin-top="0"
     fit-margin-left="0"
     fit-margin-right="0"
     fit-margin-bottom="0"
     units="px"
     inkscape:window-width="1887"
     inkscape:window-height="1079"
     inkscape:window-x="33"
     inkscape:window-y="0"
     inkscape:window-maximized="1"
     inkscape:snap-bbox="true"
     inkscape:bbox-nodes="true"
     inkscape:showpageshadow="false"
     inkscape:snap-page="true"
     showguides="true"
     inkscape:guide-bbox="true"
     inkscape:snap-intersection-paths="false"
     inkscape:object-nodes="true"
     inkscape:snap-smooth-nodes="true"
     inkscape:object-paths="true"
     inkscape:bbox-paths="true"
     showborder="true" />
  <metadata
     id="metadata7">
    <rdf:RDF>
      <cc:Work
         rdf:about="">
        <dc:format>image/svg+xml</dc:format>
        <dc:type
           rdf:resource="http://purl.org/dc/dcmitype/StillImage" />
        <dc:title></dc:title>
      </cc:Work>
    </rdf:RDF>
  </metadata>
  <g
     inkscape:label="Layer 1"
     inkscape:groupmode="layer"
     id="layer1"
     transform="translate(-1206.2213,-534.10352)">
    <rect
       style="opacity:1;fill:#272b30;fill-opacity:1;stroke:none;stroke-width:2;stroke-linecap:round;stroke-linejoin:round;stroke-miterlimit:4;stroke-dasharray:none;stroke-dashoffset:0;stroke-opacity:1"
       id="rect4879"
       width="465.71603"
       height="199.99998"
       x="1397.3055"
       y="534.10352"
       ry="0" />
    <path
       style="opacity:1;fill:#ffffff;fill-opacity:1;stroke:none;stroke-width:2;stroke-linecap:round;stroke-linejoin:round;stroke-miterlimit:4;stroke-dasharray:none;stroke-dashoffset:0;stroke-opacity:1"
       d="M 5.2480469,0 C 2.3503475,0 0,2.3503871 0,5.2480469 L 0,194.75195 C 0,197.64965 2.3503472,200 5.2480469,200 L 211.4375,200 C 214.3351,200 216.68359,197.64965 216.68359,194.75195 L 216.68359,5.2480469 C 216.68359,2.3503872 214.33325,0 211.43555,0 Z"
       transform="translate(1206.2213,534.10352)"
       id="rect4877"
       inkscape:connector-curvature="0"
       sodipodi:nodetypes="sccssssss" />
    <g
       id="text4258"
       style="font-style:normal;font-weight:normal;font-size:61.73529816px;line-height:100%;font-family:sans-serif;letter-spacing:0px;word-spacing:0px;fill:#ffffff;fill-opacity:1;stroke:none;stroke-width:1.00000012;stroke-linecap:butt;stroke-linejoin:miter;stroke-miterlimit:4;stroke-dasharray:none;stroke-opacity:1"
       transform="matrix(1.0006996,0,0,0.99930088,8.6841675e-6,0)">
      <path
         inkscape:connector-curvature="0"
         id="path5524"
         style="font-weight:bold;font-size:47.49402237px;line-height:100%;fill:#ffffff;fill-opacity:1;stroke:none;stroke-width:1.00000012;stroke-miterlimit:4;stroke-dasharray:none;stroke-opacity:1"
         d="M 1446.3775,589.09384 1457.7408,589.09384 1465.6256,607.623 1473.5567,589.09384 1484.8968,589.09384 1484.8968,623.71716 1476.4555,623.71716 1476.4555,598.3932 1468.478,617.06151 1462.8195,617.06151 1454.842,598.3932 1454.842,623.71716 1446.3775,623.71716 1446.3775,589.09384 Z" />
      <path
         inkscape:connector-curvature="0"
         id="path5526"
         style="font-weight:bold;font-size:47.49402237px;line-height:100%;fill:#ffffff;fill-opacity:1;stroke:none;stroke-width:1.00000012;stroke-miterlimit:4;stroke-dasharray:none;stroke-opacity:1"
         d="M 1504.9566,612.02918 Q 1502.3592,612.02918 1501.0374,612.91042 1499.7387,613.79165 1499.7387,615.50775 1499.7387,617.0847 1500.7823,617.98912 1501.849,618.87036 1503.7275,618.87036 1506.0697,618.87036 1507.6698,617.20065 1509.27,615.50775 1509.27,612.97999 L 1509.27,612.02918 1504.9566,612.02918 Z M 1517.6417,608.89847 1517.6417,623.71716 1509.27,623.71716 1509.27,619.86755 Q 1507.6003,622.23297 1505.5131,623.32293 1503.426,624.38969 1500.4344,624.38969 1496.3993,624.38969 1493.8715,622.04745 1491.367,619.68203 1491.367,615.92518 1491.367,611.35666 1494.4977,609.22314 1497.6516,607.08962 1504.3768,607.08962 L 1509.27,607.08962 1509.27,606.44028 Q 1509.27,604.4691 1507.7162,603.56467 1506.1625,602.63705 1502.8694,602.63705 1500.2025,602.63705 1497.9067,603.17043 1495.6108,603.70381 1493.6396,604.77057 L 1493.6396,598.43958 Q 1496.3065,597.79025 1498.9966,597.46558 1501.6867,597.11773 1504.3768,597.11773 1511.4035,597.11773 1514.511,599.90058 1517.6417,602.66024 1517.6417,608.89847 Z" />
      <path
         inkscape:connector-curvature="0"
         id="path5528"
         style="font-weight:bold;font-size:47.49402237px;line-height:100%;fill:#ffffff;fill-opacity:1;stroke:none;stroke-width:1.00000012;stroke-miterlimit:4;stroke-dasharray:none;stroke-opacity:1"
         d="M 1545.7022,598.55554 1545.7022,604.86333 Q 1543.0353,603.75019 1540.5539,603.19362 1538.0725,602.63705 1535.8694,602.63705 1533.504,602.63705 1532.3445,603.24 1531.2081,603.81977 1531.2081,605.04886 1531.2081,606.04605 1532.0662,606.57943 1532.9474,607.11281 1535.1969,607.3679 L 1536.6579,607.57662 Q 1543.0353,608.38828 1545.2384,610.24352 1547.4414,612.09875 1547.4414,616.06432 1547.4414,620.21541 1544.3803,622.30255 1541.3192,624.38969 1535.2433,624.38969 1532.6691,624.38969 1529.9095,623.97226 1527.173,623.57802 1524.2742,622.76636 L 1524.2742,616.45856 Q 1526.7556,617.66446 1529.3529,618.26741 1531.9734,618.87036 1534.6635,618.87036 1537.0985,618.87036 1538.3276,618.19784 1539.5567,617.52532 1539.5567,616.20346 1539.5567,615.09032 1538.6986,614.55694 1537.8638,614.00037 1535.336,613.69889 L 1533.875,613.51337 Q 1528.3325,612.81766 1526.1062,610.93923 1523.88,609.0608 1523.88,605.23438 1523.88,601.10648 1526.7092,599.11211 1529.5384,597.11773 1535.3824,597.11773 1537.6783,597.11773 1540.206,597.46558 1542.7338,597.81344 1545.7022,598.55554 Z" />
      <path
         inkscape:connector-curvature="0"
         id="path5530"
         style="font-weight:bold;font-size:47.49402237px;line-height:100%;fill:#ffffff;fill-opacity:1;stroke:none;stroke-width:1.00000012;stroke-miterlimit:4;stroke-dasharray:none;stroke-opacity:1"
         d="M 1562.7703,590.36931 1562.7703,597.74387 1571.3276,597.74387 1571.3276,603.68062 1562.7703,603.68062 1562.7703,614.69608 Q 1562.7703,616.50494 1563.4892,617.15427 1564.2081,617.78041 1566.3416,617.78041 L 1570.6087,617.78041 1570.6087,623.71716 1563.4892,623.71716 Q 1558.5729,623.71716 1556.5089,621.6764 1554.4681,619.61246 1554.4681,614.69608 L 1554.4681,603.68062 1550.3402,603.68062 1550.3402,597.74387 1554.4681,597.74387 1554.4681,590.36931 1562.7703,590.36931 Z" />
      <path
         inkscape:connector-curvature="0"
         id="path5532"
         style="font-weight:bold;font-size:47.49402237px;line-height:100%;fill:#ffffff;fill-opacity:1;stroke:none;stroke-width:1.00000012;stroke-miterlimit:4;stroke-dasharray:none;stroke-opacity:1"
         d="M 1602.3564,610.66095 1602.3564,613.02637 1582.946,613.02637 Q 1583.2475,615.94837 1585.0563,617.40936 1586.8652,618.87036 1590.1119,618.87036 1592.7324,618.87036 1595.4688,618.10508 1598.2285,617.3166 1601.1273,615.73965 L 1601.1273,622.14021 Q 1598.1821,623.25335 1595.2369,623.80992 1592.2918,624.38969 1589.3466,624.38969 1582.2967,624.38969 1578.3775,620.81836 1574.4815,617.22384 1574.4815,610.75371 1574.4815,604.39953 1578.3079,600.75863 1582.1575,597.11773 1588.8828,597.11773 1595.005,597.11773 1598.6691,600.80501 1602.3564,604.49229 1602.3564,610.66095 Z M 1593.8223,607.90128 Q 1593.8223,605.53586 1592.4309,604.09805 1591.0627,602.63705 1588.8364,602.63705 1586.4246,602.63705 1584.9172,604.00529 1583.4098,605.35033 1583.0388,607.90128 L 1593.8223,607.90128 Z" />
      <path
         inkscape:connector-curvature="0"
         id="path5534"
         style="font-weight:bold;font-size:47.49402237px;line-height:100%;fill:#ffffff;fill-opacity:1;stroke:none;stroke-width:1.00000012;stroke-miterlimit:4;stroke-dasharray:none;stroke-opacity:1"
         d="M 1627.9123,604.81695 Q 1626.8223,604.30676 1625.7324,604.07486 1624.6656,603.81977 1623.5757,603.81977 1620.3754,603.81977 1618.6361,605.88371 1616.92,607.92447 1616.92,611.7509 L 1616.92,623.71716 1608.6178,623.71716 1608.6178,597.74387 1616.92,597.74387 1616.92,602.01091 Q 1618.5201,599.45996 1620.5841,598.30044 1622.6712,597.11773 1625.57,597.11773 1625.9875,597.11773 1626.4745,597.16413 1626.9615,597.18733 1627.8891,597.30327 L 1627.9121,604.81697 Z" />
      <path
         inkscape:connector-curvature="0"
         id="path5536"
         style="font-weight:bold;font-size:47.49402237px;line-height:100%;fill:#ffffff;fill-opacity:1;stroke:none;stroke-width:1.00000012;stroke-miterlimit:4;stroke-dasharray:none;stroke-opacity:1"
         d="M 1676.4267,621.81555 Q 1673.9685,623.09102 1671.3016,623.74035 1668.6347,624.38969 1665.7359,624.38969 1657.0858,624.38969 1652.0303,619.56607 1646.9748,614.71927 1646.9748,606.44028 1646.9748,598.13811 1652.0303,593.3145 1657.0858,588.46769 1665.7359,588.46769 1668.6347,588.46769 1671.3016,589.11703 1673.9685,589.76636 1676.4267,591.04183 L 1676.4267,598.20768 Q 1673.9453,596.51478 1671.5335,595.7263 1669.1217,594.93783 1666.4548,594.93783 1661.6776,594.93783 1658.9411,597.99896 1656.2046,601.0601 1656.2046,606.44028 1656.2046,611.79728 1658.9411,614.85841 1661.6776,617.91955 1666.4548,617.91955 1669.1217,617.91955 1671.5335,617.13108 1673.9453,616.3426 1676.4267,614.6497 L 1676.4267,621.81555 Z" />
      <path
         inkscape:connector-curvature="0"
         id="path5538"
         style="font-weight:bold;font-size:47.49402237px;line-height:100%;fill:#ffffff;fill-opacity:1;stroke:none;stroke-width:1.00000012;stroke-miterlimit:4;stroke-dasharray:none;stroke-opacity:1"
         d="M 1695.8371,603.05448 Q 1693.0774,603.05448 1691.6164,605.04886 1690.1786,607.02005 1690.1786,610.75371 1690.1786,614.48737 1691.6164,616.48175 1693.0774,618.45293 1695.8371,618.45293 1698.5504,618.45293 1699.9882,616.48175 1701.426,614.48737 1701.426,610.75371 1701.426,607.02005 1699.9882,605.04886 1698.5504,603.05448 1695.8371,603.05448 Z M 1695.8371,597.11773 Q 1702.5391,597.11773 1706.296,600.73544 1710.076,604.35315 1710.076,610.75371 1710.076,617.15427 1706.296,620.77198 1702.5391,624.38969 1695.8371,624.38969 1689.1118,624.38969 1685.3086,620.77198 1681.5286,617.15427 1681.5286,610.75371 1681.5286,604.35315 1685.3086,600.73544 1689.1118,597.11773 1695.8371,597.11773 Z" />
      <path
         inkscape:connector-curvature="0"
         id="path5540"
         style="font-weight:bold;font-size:47.49402237px;line-height:100%;fill:#ffffff;fill-opacity:1;stroke:none;stroke-width:1.00000012;stroke-miterlimit:4;stroke-dasharray:none;stroke-opacity:1"
         d="M 1742.2411,607.90128 1742.2411,623.71716 1733.8926,623.71716 1733.8926,621.14302 1733.8926,611.61175 Q 1733.8926,608.24914 1733.7303,606.97366 1733.5911,605.69819 1733.2201,605.09524 1732.7331,604.28357 1731.8982,603.84296 1731.0634,603.37915 1729.9966,603.37915 1727.3993,603.37915 1725.9151,605.39672 1724.4309,607.39109 1724.4309,610.93923 L 1724.4309,623.71716 1716.1287,623.71716 1716.1287,597.74387 1724.4309,597.74387 1724.4309,601.5471 Q 1726.3093,599.27444 1728.4196,598.20768 1730.53,597.11773 1733.0809,597.11773 1737.5799,597.11773 1739.8989,599.87739 1742.2411,602.63705 1742.2411,607.90128 Z" />
      <path
         inkscape:connector-curvature="0"
         id="path5542"
         style="font-weight:bold;font-size:47.49402237px;line-height:100%;fill:#ffffff;fill-opacity:1;stroke:none;stroke-width:1.00000012;stroke-miterlimit:4;stroke-dasharray:none;stroke-opacity:1"
         d="M 1759.0542,590.36931 1759.0542,597.74387 1767.6115,597.74387 1767.6115,603.68062 1759.0542,603.68062 1759.0542,614.69608 Q 1759.0542,616.50494 1759.7731,617.15427 1760.492,617.78041 1762.6255,617.78041 L 1766.8926,617.78041 1766.8926,623.71716 1759.7731,623.71716 Q 1754.8567,623.71716 1752.7928,621.6764 1750.752,619.61246 1750.752,614.69608 L 1750.752,603.68062 1746.6241,603.68062 1746.6241,597.74387 1750.752,597.74387 1750.752,590.36931 1759.0542,590.36931 Z" />
      <path
         inkscape:connector-curvature="0"
         id="path5544"
         style="font-weight:bold;font-size:47.49402237px;line-height:100%;fill:#ffffff;fill-opacity:1;stroke:none;stroke-width:1.00000012;stroke-miterlimit:4;stroke-dasharray:none;stroke-opacity:1"
         d="M 1792.0078,604.81695 Q 1790.9179,604.30676 1789.8279,604.07486 1788.7612,603.81977 1787.6712,603.81977 1784.4709,603.81977 1782.7316,605.88371 1781.0155,607.92447 1781.0155,611.7509 L 1781.0155,623.71716 1772.7134,623.71716 1772.7134,597.74387 1781.0155,597.74387 1781.0155,602.01091 Q 1782.6157,599.45996 1784.6796,598.30044 1786.7668,597.11773 1789.6656,597.11773 1790.083,597.11773 1790.57,597.16413 1791.057,597.18733 1791.9846,597.30327 L 1792.0076,604.81697 Z" />
      <path
         inkscape:connector-curvature="0"
         id="path5546"
         style="font-weight:bold;font-size:47.49402237px;line-height:100%;fill:#ffffff;fill-opacity:1;stroke:none;stroke-width:1.00000012;stroke-miterlimit:4;stroke-dasharray:none;stroke-opacity:1"
         d="M 1808.5426,603.05448 Q 1805.783,603.05448 1804.322,605.04886 1802.8842,607.02005 1802.8842,610.75371 1802.8842,614.48737 1804.322,616.48175 1805.783,618.45293 1808.5426,618.45293 1811.2559,618.45293 1812.6937,616.48175 1814.1315,614.48737 1814.1315,610.75371 1814.1315,607.02005 1812.6937,605.04886 1811.2559,603.05448 1808.5426,603.05448 Z M 1808.5426,597.11773 Q 1815.2447,597.11773 1819.0015,600.73544 1822.7816,604.35315 1822.7816,610.75371 1822.7816,617.15427 1819.0015,620.77198 1815.2447,624.38969 1808.5426,624.38969 1801.8174,624.38969 1798.0142,620.77198 1794.2341,617.15427 1794.2341,610.75371 1794.2341,604.35315 1798.0142,600.73544 1801.8174,597.11773 1808.5426,597.11773 Z" />
      <path
         inkscape:connector-curvature="0"
         id="path5548"
         style="font-weight:bold;font-size:47.49402237px;line-height:100%;fill:#ffffff;fill-opacity:1;stroke:none;stroke-width:1.00000012;stroke-miterlimit:4;stroke-dasharray:none;stroke-opacity:1"
         d="M 1828.8342,587.63284 1837.1364,587.63284 1837.1364,623.71716 1828.8342,623.71716 1828.8342,587.63284 Z" />
      <path
         inkscape:connector-curvature="0"
         id="path5550"
         style="font-weight:bold;font-size:47.49402237px;line-height:100%;fill:#ffffff;fill-opacity:1;stroke:none;stroke-width:1.00000012;stroke-miterlimit:4;stroke-dasharray:none;stroke-opacity:1"
         d="M 1446.3775,636.58786 1461.1962,636.58786 Q 1467.8055,636.58786 1471.3304,639.53304 1474.8786,642.45504 1474.8786,647.8816 1474.8786,653.33136 1471.3304,656.27654 1467.8055,659.19854 1461.1962,659.19854 L 1455.3058,659.19854 1455.3058,671.21119 1446.3775,671.21119 1446.3775,636.58786 Z M 1455.3058,643.05799 1455.3058,652.7284 1460.2454,652.7284 Q 1462.8427,652.7284 1464.2573,651.47612 1465.6719,650.20065 1465.6719,647.8816 1465.6719,645.56256 1464.2573,644.31027 1462.8427,643.05799 1460.2454,643.05799 L 1455.3058,643.05799 Z" />
      <path
         inkscape:connector-curvature="0"
         id="path5552"
         style="font-weight:bold;font-size:47.49402237px;line-height:100%;fill:#ffffff;fill-opacity:1;stroke:none;stroke-width:1.00000012;stroke-miterlimit:4;stroke-dasharray:none;stroke-opacity:1"
         d="M 1500.0866,652.31098 Q 1498.9966,651.80079 1497.9067,651.56888 1496.8399,651.31379 1495.7499,651.31379 1492.5497,651.31379 1490.8104,653.37774 1489.0943,655.4185 1489.0943,659.24492 L 1489.0943,671.21119 1480.7921,671.21119 1480.7921,645.23789 1489.0943,645.23789 1489.0943,649.50493 Q 1490.6944,646.95398 1492.7584,645.79446 1494.8455,644.61175 1497.7443,644.61175 1498.1618,644.61175 1498.6488,644.65815 1499.1358,644.68135 1500.0634,644.79729 L 1500.0864,652.311 Z" />
      <path
         inkscape:connector-curvature="0"
         id="path5554"
         style="font-weight:bold;font-size:47.49402237px;line-height:100%;fill:#ffffff;fill-opacity:1;stroke:none;stroke-width:1.00000012;stroke-miterlimit:4;stroke-dasharray:none;stroke-opacity:1"
         d="M 1516.6213,650.5485 Q 1513.8617,650.5485 1512.4007,652.54288 1510.9629,654.51407 1510.9629,658.24773 1510.9629,661.98139 1512.4007,663.97577 1513.8617,665.94696 1516.6213,665.94696 1519.3346,665.94696 1520.7724,663.97577 1522.2102,661.98139 1522.2102,658.24773 1522.2102,654.51407 1520.7724,652.54288 1519.3346,650.5485 1516.6213,650.5485 Z M 1516.6213,644.61175 Q 1523.3234,644.61175 1527.0802,648.22946 1530.8603,651.84717 1530.8603,658.24773 1530.8603,664.64829 1527.0802,668.266 1523.3234,671.88371 1516.6213,671.88371 1509.8961,671.88371 1506.0929,668.266 1502.3128,664.64829 1502.3128,658.24773 1502.3128,651.84717 1506.0929,648.22946 1509.8961,644.61175 1516.6213,644.61175 Z" />
      <path
         inkscape:connector-curvature="0"
         id="path5556"
         style="font-weight:bold;font-size:47.49402237px;line-height:100%;fill:#ffffff;fill-opacity:1;stroke:none;stroke-width:1.00000012;stroke-miterlimit:4;stroke-dasharray:none;stroke-opacity:1"
         d="M 1554.5841,666.805 Q 1552.868,669.07766 1550.8041,670.14443 1548.7401,671.21119 1546.0268,671.21119 1541.2728,671.21119 1538.1653,667.47752 1535.0577,663.72067 1535.0577,657.92306 1535.0577,652.10226 1538.1653,648.39179 1541.2728,644.65813 1546.0268,644.65813 1548.7401,644.65813 1550.8041,645.72489 1552.868,646.79165 1554.5841,649.08751 L 1554.5841,645.23789 1562.9327,645.23789 1562.9327,668.59067 Q 1562.9327,674.85208 1558.9671,678.14513 1555.0247,681.46136 1547.511,681.46136 1545.076,681.46136 1542.8034,681.09031 1540.5307,680.71927 1538.2348,679.95398 L 1538.2348,673.48385 Q 1540.4147,674.73613 1542.5019,675.33908 1544.589,675.96523 1546.6993,675.96523 1550.7809,675.96523 1552.6825,674.17956 1554.5841,672.3939 1554.5841,668.59067 L 1554.5841,666.805 Z M 1549.1112,650.64126 Q 1546.537,650.64126 1545.0992,652.54288 1543.6614,654.4445 1543.6614,657.92306 1543.6614,661.49439 1545.0528,663.34963 1546.4443,665.18167 1549.1112,665.18167 1551.7085,665.18167 1553.1463,663.28005 1554.5841,661.37844 1554.5841,657.92306 1554.5841,654.4445 1553.1463,652.54288 1551.7085,650.64126 1549.1112,650.64126 Z" />
      <path
         inkscape:connector-curvature="0"
         id="path5558"
         style="font-weight:bold;font-size:47.49402237px;line-height:100%;fill:#ffffff;fill-opacity:1;stroke:none;stroke-width:1.00000012;stroke-miterlimit:4;stroke-dasharray:none;stroke-opacity:1"
         d="M 1590.251,652.31098 Q 1589.161,651.80079 1588.0711,651.56888 1587.0043,651.31379 1585.9144,651.31379 1582.7141,651.31379 1580.9748,653.37774 1579.2587,655.4185 1579.2587,659.24492 L 1579.2587,671.21119 1570.9566,671.21119 1570.9566,645.23789 1579.2587,645.23789 1579.2587,649.50493 Q 1580.8589,646.95398 1582.9228,645.79446 1585.01,644.61175 1587.9088,644.61175 1588.3262,644.61175 1588.8132,644.65815 1589.3002,644.68135 1590.2278,644.79729 L 1590.2508,652.311 Z" />
      <path
         inkscape:connector-curvature="0"
         id="path5560"
         style="font-weight:bold;font-size:47.49402237px;line-height:100%;fill:#ffffff;fill-opacity:1;stroke:none;stroke-width:1.00000012;stroke-miterlimit:4;stroke-dasharray:none;stroke-opacity:1"
         d="M 1606.0669,659.5232 Q 1603.4696,659.5232 1602.1477,660.40444 1600.849,661.28568 1600.849,663.00177 1600.849,664.57872 1601.8926,665.48315 1602.9594,666.36438 1604.8378,666.36438 1607.18,666.36438 1608.7802,664.69467 1610.3803,663.00177 1610.3803,660.47401 L 1610.3803,659.5232 1606.0669,659.5232 Z M 1618.7521,656.39249 1618.7521,671.21119 1610.3803,671.21119 1610.3803,667.36157 Q 1608.7106,669.727 1606.6235,670.81695 1604.5363,671.88371 1601.5447,671.88371 1597.5096,671.88371 1594.9818,669.54147 1592.4773,667.17605 1592.4773,663.4192 1592.4773,658.85068 1595.608,656.71716 1598.7619,654.58364 1605.4871,654.58364 L 1610.3803,654.58364 1610.3803,653.93431 Q 1610.3803,651.96312 1608.8265,651.05869 1607.2728,650.13107 1603.9797,650.13107 1601.3128,650.13107 1599.017,650.66446 1596.7211,651.19784 1594.7499,652.2646 L 1594.7499,645.93361 Q 1597.4168,645.28427 1600.1069,644.95961 1602.797,644.61175 1605.4871,644.61175 1612.5138,644.61175 1615.6213,647.3946 1618.7521,650.15427 1618.7521,656.39249 Z" />
      <path
         inkscape:connector-curvature="0"
         id="path5562"
         style="font-weight:bold;font-size:47.49402237px;line-height:100%;fill:#ffffff;fill-opacity:1;stroke:none;stroke-width:1.00000012;stroke-miterlimit:4;stroke-dasharray:none;stroke-opacity:1"
         d="M 1650.5925,649.55131 Q 1652.1695,647.13951 1654.3262,645.88722 1656.5061,644.61175 1659.1034,644.61175 1663.5792,644.61175 1665.9214,647.37141 1668.2636,650.13107 1668.2636,655.3953 L 1668.2636,671.21119 1659.9151,671.21119 1659.9151,657.66797 Q 1659.9381,657.36649 1659.9381,657.04183 1659.9611,656.71716 1659.9611,656.11421 1659.9611,653.35455 1659.1494,652.12545 1658.3377,650.87317 1656.5289,650.87317 1654.1635,650.87317 1652.8648,652.82117 1651.5893,654.76916 1651.5429,658.45644 L 1651.5429,671.21119 1643.1944,671.21119 1643.1944,657.66797 Q 1643.1944,653.35455 1642.4523,652.12545 1641.7102,650.87317 1639.8086,650.87317 1637.42,650.87317 1636.1213,652.84436 1634.8226,654.79235 1634.8226,658.43325 L 1634.8226,671.21119 1626.4741,671.21119 1626.4741,645.23789 1634.8226,645.23789 1634.8226,649.04112 Q 1636.3532,646.83803 1638.3244,645.72489 1640.3188,644.61175 1642.7074,644.61175 1645.3975,644.61175 1647.4614,645.91041 1649.5254,647.20908 1650.5921,649.55131 Z" />
    </g>
    <path
       inkscape:connector-curvature="0"
       style="display:inline;fill:#979799;fill-opacity:1;fill-rule:nonzero;stroke:none"
       d="M 1266.7526,608.92767 C 1270.3108,619.65762 1280.9349,626.0583 1291.7431,624.68197 L 1277.3812,581.36173 C 1267.8919,586.71518 1263.1967,598.19545 1266.7526,608.92767"
       id="path4405" />
    <path
       inkscape:connector-curvature="0"
       style="display:inline;fill:#979799;fill-opacity:1;fill-rule:nonzero;stroke:none"
       d="M 1326.8145,659.88685 C 1325.7604,661.35985 1324.0595,662.23216 1322.2481,662.23216 L 1306.8783,662.23216 C 1305.0669,662.23216 1303.3661,661.35985 1302.3119,659.88685 L 1295.6972,650.65984 1333.4292,650.65984 Z M 1303.511,631.1862 C 1306.4087,631.1862 1308.7586,633.53613 1308.7586,636.43379 1308.7586,639.33149 1306.4087,641.68137 1303.511,641.68137 1300.6133,641.68137 1298.2635,639.33149 1298.2635,636.43379 1298.2635,633.53613 1300.6133,631.1862 1303.511,631.1862 M 1325.6154,631.1862 C 1328.513,631.1862 1330.863,633.53613 1330.863,636.43379 1330.863,639.33149 1328.513,641.68137 1325.6154,641.68137 1322.7177,641.68137 1320.3678,639.33149 1320.3678,636.43379 1320.3678,633.53613 1322.7177,631.1862 1325.6154,631.1862 M 1337.3833,642.86209 1337.3833,624.68197 1291.7431,624.68197 1291.7431,642.86209 1286.9397,642.86209 1286.9397,653.24681 1291.7431,653.24681 1291.7431,657.88677 C 1291.7431,659.23321 1292.1827,660.54279 1292.9928,661.61991 L 1300.878,672.10363 C 1302.0518,673.66407 1303.8885,674.58238 1305.8425,674.58238 L 1323.2839,674.58238 C 1325.2379,674.58238 1327.0746,673.66407 1328.2483,672.10363 L 1336.1358,661.61991 C 1336.9437,660.54279 1337.3833,659.23321 1337.3833,657.88677 L 1337.3833,653.24681 1342.1867,653.24681 1342.1867,642.86209 Z M 1337.3833,642.86209"
       id="path4407" />
    <path
       inkscape:connector-curvature="0"
       style="display:inline;fill:#515459;fill-opacity:1;fill-rule:nonzero;stroke:none"
       d="M 1327.7627,563.26675 1325.7028,562.84095 1326.0227,561.2989 1314.9337,559.00652 C 1311.3225,558.28383 1307.884,558.88915 1305.594,560.41509 L 1304.9841,563.36111 C 1307.274,561.83517 1310.7127,561.22528 1314.3239,561.95027 L 1313.6609,565.15634 1316.943,565.83299 1309.9255,594.7546 C 1309.7989,595.29086 1309.8938,595.85476 1310.1902,596.31967 1310.4871,596.78457 1310.959,597.1091 1311.4975,597.2219 L 1314.0223,597.74204 C 1314.5609,597.8548 1315.1225,597.74204 1315.5782,597.43363 1316.0362,597.12522 1316.3469,596.6442 1316.4436,596.101 L 1321.4679,566.76977 1324.7499,567.44872 1325.0699,565.90666 1327.1275,566.33013 1326.8099,567.87218 1330.1448,568.56269 1331.4154,562.41288 1328.0804,561.72468 Z M 1327.7627,563.26675"
       id="path4409" />
    <path
       inkscape:connector-curvature="0"
       style="display:inline;fill:#515459;fill-opacity:1;fill-rule:nonzero;stroke:none"
       d="M 1305.2809,614.87725 C 1303.2602,615.03144 1301.4949,613.51704 1301.3407,611.49396 1301.1864,609.47318 1302.7009,607.70783 1304.7217,607.55364 1306.7448,607.39942 1308.5101,608.91385 1308.6642,610.93695 1308.8184,612.95773 1307.304,614.72307 1305.2809,614.87725 M 1311.5757,608.3592 1312.9889,606.99895 1311.4883,604.93217 1309.7552,605.85278 1307.6309,604.54777 1307.6673,602.58685 1305.1447,602.18638 1304.5716,604.06217 1302.1458,604.64214 1300.7856,603.22899 1298.7187,604.72962 1299.6371,606.46042 1298.3344,608.58706 1296.3734,608.5503 1295.9729,611.07284 1297.8464,611.64823 1298.4288,614.07179 1297.0156,615.43204 1298.5162,617.49883 1300.247,616.58053 1302.3713,617.88322 1302.3367,619.84414 1304.8593,620.24461 1305.4324,618.37113 1307.8582,617.78886 1309.2185,619.20199 1311.2853,617.70136 1310.3647,615.97058 1311.6697,613.84393 1313.6306,613.88069 1314.0311,611.35814 1312.1554,610.78506 Z M 1311.5757,608.3592"
       id="path4411" />
    <path
       inkscape:connector-curvature="0"
       style="display:inline;fill:#515459;fill-opacity:1;fill-rule:nonzero;stroke:none"
       d="M 1358.1849,583.99472 1352.9949,588.79351 1354.6175,590.54962 1353.1767,594.8121 1354.682,596.44165 1359.0457,595.33918 1360.6707,597.0976 1365.863,592.2988 Z M 1358.1849,583.99472"
       id="path4413" />
    <path
       inkscape:connector-curvature="0"
       style="display:inline;fill:#515459;fill-opacity:1;fill-rule:nonzero;stroke:none"
       d="M 1327.1252,605.26589 C 1327.6476,606.72278 1326.8927,608.32697 1325.4381,608.85174 1323.9813,609.37651 1322.3747,608.62156 1321.8523,607.16699 1321.3275,605.7101 1322.0825,604.1036 1323.5371,603.57883 1324.994,603.05407 1326.5981,603.809 1327.1252,605.26589 M 1319.7924,602.2485 1318.7061,608.29934 1323.4013,612.26496 1329.1828,610.18206 1330.2714,604.13118 1325.574,600.1656 Z M 1319.7924,602.2485"
       id="path4415" />
    <path
       inkscape:connector-curvature="0"
       style="display:inline;fill:#515459;fill-opacity:1;fill-rule:nonzero;stroke:none"
       d="M 1248.9522,686.34574 1245.7553,697.51987 1245.4377,697.51987 1242.0291,686.34574 C 1241.7138,685.25708 1241.3271,684.90498 1240.2384,684.90498 L 1230.8204,684.90498 1230.8204,709.5042 1237.7435,709.5042 1237.7435,694.60378 1238.0934,694.60378 1242.5216,708.09793 C 1242.8392,709.1175 1243.1891,709.5042 1244.1028,709.5042 L 1246.6345,709.5042 C 1247.546,709.5042 1247.8636,709.15204 1248.2158,708.09793 L 1252.6416,694.60378 1252.9938,694.60378 1252.9938,709.5042 1260.1263,709.5042 1260.1263,684.90498 1250.7451,684.90498 C 1249.6565,684.90498 1249.2698,685.25708 1248.9522,686.34574"
       id="path4417" />
    <path
       inkscape:connector-curvature="0"
       style="display:inline;fill:#515459;fill-opacity:1;fill-rule:nonzero;stroke:none"
       d="M 1275.8092,704.1277 C 1274.0877,704.97008 1273.3858,705.04144 1272.5755,705.04144 L 1272.2603,705.04144 C 1271.6986,705.04144 1271.2775,704.97007 1270.9944,704.68929 1270.7136,704.40849 1270.6446,703.98733 1270.6446,703.38889 1270.6446,702.86185 1270.6791,702.44064 1271.0312,702.0885 1271.3811,701.73869 1271.9081,701.63277 1273.6297,701.63277 L 1275.8092,701.63277 Z M 1277.7427,689.17439 1269.5191,689.17439 C 1267.6225,689.17439 1266.6029,689.48968 1265.7951,690.29986 1264.9504,691.14223 1264.6352,692.2677 1264.6006,695.74536 L 1271.1693,695.74536 C 1271.2057,694.86618 1271.2411,694.69126 1271.4869,694.44498 1271.6986,694.23554 1272.0485,694.16418 1272.6469,694.16418 L 1274.334,694.16418 C 1274.93,694.16418 1275.2822,694.23555 1275.4917,694.44498 1275.7379,694.69126 1275.8092,694.9375 1275.8092,696.48418 L 1275.8092,698.50496 C 1273.7011,698.1183 1271.5215,697.90657 1269.694,697.90657 1267.3763,697.90657 1265.97,698.18967 1265.0218,699.13791 1264.1081,700.05164 1263.7905,701.5269 1263.7905,704.05634 1263.7905,706.72849 1264.2485,707.88846 1264.9159,708.55591 1265.6893,709.32927 1266.6029,709.53871 1268.3246,709.53871 L 1270.6791,709.53871 C 1272.4352,709.53871 1273.4548,709.29242 1275.8092,707.43044 L 1275.8092,709.5042 1282.9073,709.5042 1282.9073,695.53594 C 1282.9073,692.37126 1282.5552,691.2481 1281.7128,690.33437 1280.905,689.48968 1279.4987,689.17439 1277.7427,689.17439"
       id="path4419" />
    <path
       inkscape:connector-curvature="0"
       style="display:inline;fill:#515459;fill-opacity:1;fill-rule:nonzero;stroke:none"
       d="M 1300.1554,689.17439 1294.8847,697.27593 1293.9733,697.27593 1293.9733,682.97394 1286.8384,682.97394 1286.8384,709.5042 1293.9733,709.5042 1293.9733,702.22891 1294.9216,702.22891 1299.3843,709.5042 1307.4651,709.5042 1300.8596,699.17241 1307.5342,689.17439 Z M 1300.1554,689.17439"
       id="path4421" />
    <path
       inkscape:connector-curvature="0"
       style="display:inline;fill:#515459;fill-opacity:1;fill-rule:nonzero;stroke:none"
       d="M 1315.1363,696.56936 C 1315.2467,694.6314 1315.4746,694.29079 1315.6242,694.14118 1315.7969,693.96626 1316.0868,693.9087 1316.9591,693.9087 L 1320.1307,693.9087 C 1321.0007,693.9087 1321.2908,693.96617 1321.4657,694.14118 1321.6221,694.29767 1321.8293,694.62451 1321.9306,696.56936 Z M 1327.7973,697.21838 C 1327.7375,693.12389 1327.2449,691.35166 1326.2276,690.33668 1325.445,689.55186 1324.3702,689.17439 1322.2505,689.17439 L 1314.867,689.17439 C 1312.7473,689.17439 1311.6448,689.55186 1310.86,690.33668 1309.67,691.49665 1308.6527,693.73378 1308.6527,699.33814 1308.6527,704.94476 1309.67,707.17958 1310.86,708.34187 1311.6448,709.12674 1312.7473,709.5042 1314.867,709.5042 L 1322.2505,709.5042 C 1324.3702,709.5042 1325.445,709.12674 1326.2276,708.34187 1327.1689,707.42587 1327.6385,705.87462 1327.7673,702.54651 L 1321.9006,702.54651 C 1321.7924,704.10927 1321.6083,704.39468 1321.4657,704.53741 1321.2908,704.71229 1321.0007,704.76984 1320.1307,704.76984 L 1316.9591,704.76984 C 1316.0868,704.76984 1315.7969,704.71228 1315.6242,704.53741 1315.4355,704.35093 1315.1248,703.88834 1315.0788,700.314 L 1327.7973,700.314 Z M 1327.7973,697.21838"
       id="path4423" />
    <path
       inkscape:connector-curvature="0"
       style="display:inline;fill:#ff4235;fill-opacity:1;fill-rule:nonzero;stroke:none"
       d="M 1360.6775,690.63359 1363.8054,690.63359 C 1364.8595,690.63359 1365.2117,690.70262 1365.4234,690.91438 1365.6328,691.12611 1365.9136,691.58182 1366.0195,694.64064 L 1373.083,694.64064 C 1373.014,689.68535 1372.4156,687.54027 1371.1842,686.31124 1370.236,685.36295 1368.9356,684.90498 1366.3717,684.90498 L 1358.1481,684.90498 C 1355.5842,684.90498 1354.247,685.36295 1353.2987,686.31124 1351.8579,687.71751 1350.6288,690.42185 1350.6288,697.20457 1350.6288,703.98733 1351.8579,706.69168 1353.2987,708.09793 1354.247,709.04618 1355.5842,709.5042 1358.1481,709.5042 L 1366.3717,709.5042 C 1368.9356,709.5042 1370.236,709.04618 1371.1842,708.09793 1372.4501,706.86887 1373.014,704.68929 1373.083,699.66494 L 1366.0195,699.66494 C 1365.9136,702.82731 1365.6328,703.28302 1365.4234,703.49476 1365.2117,703.70654 1364.8595,703.77554 1363.8054,703.77554 L 1360.6775,703.77554 C 1359.6235,703.77554 1359.2736,703.70651 1359.0618,703.49476 1358.8155,703.24851 1358.3944,702.61557 1358.3944,697.20457 1358.3944,691.82811 1358.8155,691.16061 1359.0618,690.91438 1359.2736,690.70264 1359.6235,690.63359 1360.6775,690.63359"
       id="path4425" />
    <path
       inkscape:connector-curvature="0"
       style="display:inline;fill:#ff4235;fill-opacity:1;fill-rule:nonzero;stroke:none"
       d="M 1376.1671,684.90498 1376.1671,690.66809 1383.3711,690.66809 1383.3711,709.5042 1390.9271,709.5042 1390.9271,690.66809 1398.3059,690.66809 1398.3059,684.90498 Z M 1376.1671,684.90498"
       id="path4427" />
    <path
       inkscape:connector-curvature="0"
       style="display:inline;fill:#ff4235;fill-opacity:1;fill-rule:nonzero;stroke:none"
       d="M 1331.8595,690.66001 1335.4615,690.66001 1335.4615,703.74911 1331.8595,703.74911 1331.8595,709.5042 1346.6195,709.5042 1346.6195,703.74911 1343.0152,703.74911 1343.0152,690.66001 1346.6195,690.66001 1346.6195,684.90498 1331.8595,684.90498 Z M 1331.8595,690.66001"
       id="path4429" />
    <path
       inkscape:connector-curvature="0"
       style="display:inline;fill:#ff4235;fill-opacity:1;fill-rule:nonzero;stroke:none"
       d="M 1344.9462,584.29625 1338.5111,581.49522 1344.7829,571.40283 1326.6787,582.45497 1333.1139,585.25599 1326.8421,595.35068 Z M 1344.9462,584.29625"
       id="path4431" />
    <path
       inkscape:connector-curvature="0"
       style="display:inline;fill:#ff4235;fill-opacity:1;fill-rule:nonzero;stroke:none"
       d="M 1351.5955,596.29892 1348.6794,598.99639 C 1348.0695,599.56028 1347.2778,599.85257 1346.4469,599.82033 1345.616,599.78824 1344.8496,599.43367 1344.2857,598.82378 1342.3478,596.72932 1339.0681,596.60046 1336.9714,598.53837 1334.8746,600.47628 1334.748,603.75606 1336.6836,605.85278 L 1342.3869,612.01872 C 1343.5078,613.23164 1343.4318,615.13041 1342.2212,616.25127 1341.0083,617.37444 1339.1095,617.29849 1337.9863,616.08559 1336.007,613.94514 1332.6536,613.8139 1330.5108,615.79329 L 1327.5947,618.49071 C 1327.1528,618.90042 1327.1252,619.58858 1327.535,620.03047 1327.9424,620.47237 1328.6329,620.49999 1329.0771,620.0926 L 1331.9931,617.39514 C 1333.2521,616.23054 1335.2222,616.30879 1336.3868,617.56775 1338.3226,619.6622 1341.6045,619.79107 1343.7013,617.85316 1345.798,615.9152 1345.9246,612.63546 1343.9867,610.53875 L 1338.2857,604.37054 C 1337.1648,603.1599 1337.2385,601.2588 1338.4514,600.13795 1339.6643,599.01704 1341.5631,599.09072 1342.6839,600.30363 1343.6437,601.34166 1344.9511,601.94467 1346.3619,601.99992 1347.7727,602.05515 1349.1215,601.55802 1350.1595,600.59823 L 1353.0779,597.90081 Z M 1351.5955,596.29892"
       id="path4433" />
    <path
       inkscape:connector-curvature="0"
       style="display:inline;fill:#ff4235;fill-opacity:1;fill-rule:nonzero;stroke:none"
       d="M 1300.0794,570.44535 C 1298.6086,566.06777 1293.8651,563.71096 1289.4876,565.18396 1285.11,566.65466 1282.7532,571.39822 1284.2262,575.77581 L 1289.8604,592.53359 C 1290.155,593.41046 1291.1033,593.87999 1291.9779,593.58538 1292.8548,593.29079 1293.3243,592.34255 1293.0297,591.46794 L 1288.7579,578.75633 C 1288.4633,577.88177 1288.9352,576.93353 1289.8097,576.63892 1290.6844,576.34432 1291.6349,576.81611 1291.9295,577.69072 L 1298.3509,596.79381 C 1298.6455,597.66837 1299.5937,598.14021 1300.4684,597.84561 1301.3452,597.55101 1301.8171,596.60276 1301.5225,595.72585 L 1296.7904,581.65402 C 1296.4958,580.77715 1296.9677,579.82886 1297.8422,579.53657 1298.7169,579.24198 1299.6673,579.7115 1299.962,580.58842 L 1301.6445,585.59202 C 1301.939,586.46896 1302.8873,586.93842 1303.7619,586.64383 1304.6388,586.34921 1305.1083,585.40099 1304.8137,584.52641 Z M 1300.0794,570.44535"
       id="path4435" />
    <path
       style="display:inline;fill:#979799;fill-opacity:1;fill-rule:nonzero;stroke:none"
       d="M 1337.3833,764.0804"
       id="path5056" />
  </g>
</svg>
