<?xml version="1.0" encoding="UTF-8" standalone="no"?>
<!-- Created with Inkscape (http://www.inkscape.org/) -->

<svg
   xmlns:dc="http://purl.org/dc/elements/1.1/"
   xmlns:cc="http://creativecommons.org/ns#"
   xmlns:rdf="http://www.w3.org/1999/02/22-rdf-syntax-ns#"
   xmlns:svg="http://www.w3.org/2000/svg"
   xmlns="http://www.w3.org/2000/svg"
   xmlns:sodipodi="http://sodipodi.sourceforge.net/DTD/sodipodi-0.dtd"
   xmlns:inkscape="http://www.inkscape.org/namespaces/inkscape"
   width="2560"
   height="200"
   viewBox="0 0 2560 200.00002"
   id="svg2"
   version="1.1"
   inkscape:version="0.91 r13725"
   sodipodi:docname="logo-header.svg"
   inkscape:export-filename="/tmp/logo.png"
   inkscape:export-xdpi="90"
   inkscape:export-ydpi="90">
  <defs
     id="defs4">
    <clipPath
       id="clipPath4214"
       clipPathUnits="userSpaceOnUse">
      <path
         inkscape:connector-curvature="0"
         id="path4216"
         d="M 0,612 792,612 792,0 0,0 0,612 Z" />
    </clipPath>
  </defs>
  <sodipodi:namedview
     id="base"
     pagecolor="#ffffff"
     bordercolor="#666666"
     borderopacity="1.0"
     inkscape:pageopacity="0.0"
     inkscape:pageshadow="2"
     inkscape:zoom="1.4"
     inkscape:cx="1385.8663"
     inkscape:cy="136.47002"
     inkscape:document-units="px"
     inkscape:current-layer="text4258"
     showgrid="false"
     fit-margin-top="0"
     fit-margin-left="0"
     fit-margin-right="0"
     fit-margin-bottom="0"
     units="px"
     inkscape:window-width="1887"
     inkscape:window-height="1079"
     inkscape:window-x="33"
     inkscape:window-y="0"
     inkscape:window-maximized="1"
     inkscape:snap-bbox="true"
     inkscape:bbox-nodes="true"
     inkscape:showpageshadow="false"
     inkscape:snap-page="true"
     showguides="true"
     inkscape:guide-bbox="true"
     inkscape:snap-intersection-paths="false"
     inkscape:object-nodes="true"
     inkscape:snap-smooth-nodes="true">
    <sodipodi:guide
       position="977.36071,19.425747"
       orientation="0,1"
       id="guide4199" />
    <sodipodi:guide
       position="1280,19.425747"
       orientation="1,0"
       id="guide5496"
       inkscape:label=""
       inkscape:color="rgb(0,0,255)" />
  </sodipodi:namedview>
  <metadata
     id="metadata7">
    <rdf:RDF>
      <cc:Work
         rdf:about="">
        <dc:format>image/svg+xml</dc:format>
        <dc:type
           rdf:resource="http://purl.org/dc/dcmitype/StillImage" />
        <dc:title></dc:title>
      </cc:Work>
    </rdf:RDF>
  </metadata>
  <g
     inkscape:label="Layer 1"
     inkscape:groupmode="layer"
     id="layer1"
     transform="translate(-255.78232,-534.10349)">
    <rect
       style="opacity:1;fill:#272b30;fill-opacity:1;stroke:none;stroke-width:2;stroke-linecap:round;stroke-linejoin:round;stroke-miterlimit:4;stroke-dasharray:none;stroke-dashoffset:0;stroke-opacity:1"
       id="rect4879"
       width="1418.4769"
       height="200.00011"
       x="1397.3055"
       y="534.10352"
       ry="0" />
    <path
       style="opacity:1;fill:#ffffff;fill-opacity:1;stroke:none;stroke-width:2;stroke-linecap:round;stroke-linejoin:round;stroke-miterlimit:4;stroke-dasharray:none;stroke-dashoffset:0;stroke-opacity:1"
       d="m 255.7822,534.10349 0,200 1141.5233,1.3e-4 c 14.1824,0 25.6,-11.4176 25.6,-25.6 l 0,-148.8 c 0,-14.1824 -11.4176,-25.6 -25.6,-25.6 z"
       id="rect4877"
       inkscape:connector-curvature="0"
       sodipodi:nodetypes="cccsscc" />
    <g
       id="g5498"
       transform="translate(8.6841675e-6,0)">
      <g
         transform="scale(1.0006996,0.99930088)"
         style="font-style:normal;font-weight:normal;font-size:61.73529816px;line-height:100%;font-family:sans-serif;letter-spacing:0px;word-spacing:0px;fill:#ffffff;fill-opacity:1;stroke:none;stroke-width:1.00000012;stroke-linecap:butt;stroke-linejoin:miter;stroke-miterlimit:4;stroke-dasharray:none;stroke-opacity:1"
         id="text4258">
        <path
           d="m 1446.3775,589.09384 11.3633,0 7.8848,18.52916 7.9311,-18.52916 11.3401,0 0,34.62332 -8.4413,0 0,-25.32396 -7.9775,18.66831 -5.6585,0 -7.9775,-18.66831 0,25.32396 -8.4645,0 0,-34.62332 z"
           style="font-weight:bold;font-size:47.49402237px;line-height:100%;fill:#ffffff;fill-opacity:1;stroke:none;stroke-width:1.00000012;stroke-miterlimit:4;stroke-dasharray:none;stroke-opacity:1"
           id="path5524" />
        <path
           d="m 1504.9566,612.02918 q -2.5974,0 -3.9192,0.88124 -1.2987,0.88123 -1.2987,2.59733 0,1.57695 1.0436,2.48137 1.0667,0.88124 2.9452,0.88124 2.3422,0 3.9423,-1.66971 1.6002,-1.6929 1.6002,-4.22066 l 0,-0.95081 -4.3134,0 z m 12.6851,-3.13071 0,14.81869 -8.3717,0 0,-3.84961 q -1.6697,2.36542 -3.7569,3.45538 -2.0871,1.06676 -5.0787,1.06676 -4.0351,0 -6.5629,-2.34224 -2.5045,-2.36542 -2.5045,-6.12227 0,-4.56852 3.1307,-6.70204 3.1539,-2.13352 9.8791,-2.13352 l 4.8932,0 0,-0.64934 q 0,-1.97118 -1.5538,-2.87561 -1.5537,-0.92762 -4.8468,-0.92762 -2.6669,0 -4.9627,0.53338 -2.2959,0.53338 -4.2671,1.60014 l 0,-6.33099 q 2.6669,-0.64933 5.357,-0.974 2.6901,-0.34785 5.3802,-0.34785 7.0267,0 10.1342,2.78285 3.1307,2.75966 3.1307,8.99789 z"
           style="font-weight:bold;font-size:47.49402237px;line-height:100%;fill:#ffffff;fill-opacity:1;stroke:none;stroke-width:1.00000012;stroke-miterlimit:4;stroke-dasharray:none;stroke-opacity:1"
           id="path5526" />
        <path
           d="m 1545.7022,598.55554 0,6.30779 q -2.6669,-1.11314 -5.1483,-1.66971 -2.4814,-0.55657 -4.6845,-0.55657 -2.3654,0 -3.5249,0.60295 -1.1364,0.57977 -1.1364,1.80886 0,0.99719 0.8581,1.53057 0.8812,0.53338 3.1307,0.78847 l 1.461,0.20872 q 6.3774,0.81166 8.5805,2.6669 2.203,1.85523 2.203,5.8208 0,4.15109 -3.0611,6.23823 -3.0611,2.08714 -9.137,2.08714 -2.5742,0 -5.3338,-0.41743 -2.7365,-0.39424 -5.6353,-1.2059 l 0,-6.3078 q 2.4814,1.2059 5.0787,1.80885 2.6205,0.60295 5.3106,0.60295 2.435,0 3.6641,-0.67252 1.2291,-0.67252 1.2291,-1.99438 0,-1.11314 -0.8581,-1.64652 -0.8348,-0.55657 -3.3626,-0.85805 l -1.461,-0.18552 q -5.5425,-0.69571 -7.7688,-2.57414 -2.2262,-1.87843 -2.2262,-5.70485 0,-4.1279 2.8292,-6.12227 2.8292,-1.99438 8.6732,-1.99438 2.2959,0 4.8236,0.34785 2.5278,0.34786 5.4962,1.08996 z"
           style="font-weight:bold;font-size:47.49402237px;line-height:100%;fill:#ffffff;fill-opacity:1;stroke:none;stroke-width:1.00000012;stroke-miterlimit:4;stroke-dasharray:none;stroke-opacity:1"
           id="path5528" />
        <path
           d="m 1562.7703,590.36931 0,7.37456 8.5573,0 0,5.93675 -8.5573,0 0,11.01546 q 0,1.80886 0.7189,2.45819 0.7189,0.62614 2.8524,0.62614 l 4.2671,0 0,5.93675 -7.1195,0 q -4.9163,0 -6.9803,-2.04076 -2.0408,-2.06394 -2.0408,-6.98032 l 0,-11.01546 -4.1279,0 0,-5.93675 4.1279,0 0,-7.37456 8.3022,0 z"
           style="font-weight:bold;font-size:47.49402237px;line-height:100%;fill:#ffffff;fill-opacity:1;stroke:none;stroke-width:1.00000012;stroke-miterlimit:4;stroke-dasharray:none;stroke-opacity:1"
           id="path5530" />
        <path
           d="m 1602.3564,610.66095 0,2.36542 -19.4104,0 q 0.3015,2.922 2.1103,4.38299 1.8089,1.461 5.0556,1.461 2.6205,0 5.3569,-0.76528 2.7597,-0.78848 5.6585,-2.36543 l 0,6.40056 q -2.9452,1.11314 -5.8904,1.66971 -2.9451,0.57977 -5.8903,0.57977 -7.0499,0 -10.9691,-3.57133 -3.896,-3.59452 -3.896,-10.06465 0,-6.35418 3.8264,-9.99508 3.8496,-3.6409 10.5749,-3.6409 6.1222,0 9.7863,3.68728 3.6873,3.68728 3.6873,9.85594 z m -8.5341,-2.75967 q 0,-2.36542 -1.3914,-3.80323 -1.3682,-1.461 -3.5945,-1.461 -2.4118,0 -3.9192,1.36824 -1.5074,1.34504 -1.8784,3.89599 l 10.7835,0 z"
           style="font-weight:bold;font-size:47.49402237px;line-height:100%;fill:#ffffff;fill-opacity:1;stroke:none;stroke-width:1.00000012;stroke-miterlimit:4;stroke-dasharray:none;stroke-opacity:1"
           id="path5532" />
        <path
           d="m 1627.9123,604.81695 q -1.09,-0.51019 -2.1799,-0.74209 -1.0668,-0.25509 -2.1567,-0.25509 -3.2003,0 -4.9396,2.06394 -1.7161,2.04076 -1.7161,5.86719 l 0,11.96626 -8.3022,0 0,-25.97329 8.3022,0 0,4.26704 q 1.6001,-2.55095 3.6641,-3.71047 2.0871,-1.18271 4.9859,-1.18271 0.4175,0 0.9045,0.0464 0.487,0.0232 1.4146,0.13914 l 0.023,7.5137 z"
           style="font-weight:bold;font-size:47.49402237px;line-height:100%;fill:#ffffff;fill-opacity:1;stroke:none;stroke-width:1.00000012;stroke-miterlimit:4;stroke-dasharray:none;stroke-opacity:1"
           id="path5534" />
        <path
           d="m 1676.4267,621.81555 q -2.4582,1.27547 -5.1251,1.9248 -2.6669,0.64934 -5.5657,0.64934 -8.6501,0 -13.7056,-4.82362 -5.0555,-4.8468 -5.0555,-13.12579 0,-8.30217 5.0555,-13.12578 5.0555,-4.84681 13.7056,-4.84681 2.8988,0 5.5657,0.64934 2.6669,0.64933 5.1251,1.9248 l 0,7.16585 q -2.4814,-1.6929 -4.8932,-2.48138 -2.4118,-0.78847 -5.0787,-0.78847 -4.7772,0 -7.5137,3.06113 -2.7365,3.06114 -2.7365,8.44132 0,5.357 2.7365,8.41813 2.7365,3.06114 7.5137,3.06114 2.6669,0 5.0787,-0.78847 2.4118,-0.78848 4.8932,-2.48138 l 0,7.16585 z"
           style="font-weight:bold;font-size:47.49402237px;line-height:100%;fill:#ffffff;fill-opacity:1;stroke:none;stroke-width:1.00000012;stroke-miterlimit:4;stroke-dasharray:none;stroke-opacity:1"
           id="path5536" />
        <path
           d="m 1695.8371,603.05448 q -2.7597,0 -4.2207,1.99438 -1.4378,1.97119 -1.4378,5.70485 0,3.73366 1.4378,5.72804 1.461,1.97118 4.2207,1.97118 2.7133,0 4.1511,-1.97118 1.4378,-1.99438 1.4378,-5.72804 0,-3.73366 -1.4378,-5.70485 -1.4378,-1.99438 -4.1511,-1.99438 z m 0,-5.93675 q 6.702,0 10.4589,3.61771 3.78,3.61771 3.78,10.01827 0,6.40056 -3.78,10.01827 -3.7569,3.61771 -10.4589,3.61771 -6.7253,0 -10.5285,-3.61771 -3.78,-3.61771 -3.78,-10.01827 0,-6.40056 3.78,-10.01827 3.8032,-3.61771 10.5285,-3.61771 z"
           style="font-weight:bold;font-size:47.49402237px;line-height:100%;fill:#ffffff;fill-opacity:1;stroke:none;stroke-width:1.00000012;stroke-miterlimit:4;stroke-dasharray:none;stroke-opacity:1"
           id="path5538" />
        <path
           d="m 1742.2411,607.90128 0,15.81588 -8.3485,0 0,-2.57414 0,-9.53127 q 0,-3.36261 -0.1623,-4.63809 -0.1392,-1.27547 -0.5102,-1.87842 -0.487,-0.81167 -1.3219,-1.25228 -0.8348,-0.46381 -1.9016,-0.46381 -2.5973,0 -4.0815,2.01757 -1.4842,1.99437 -1.4842,5.54251 l 0,12.77793 -8.3022,0 0,-25.97329 8.3022,0 0,3.80323 q 1.8784,-2.27266 3.9887,-3.33942 2.1104,-1.08995 4.6613,-1.08995 4.499,0 6.818,2.75966 2.3422,2.75966 2.3422,8.02389 z"
           style="font-weight:bold;font-size:47.49402237px;line-height:100%;fill:#ffffff;fill-opacity:1;stroke:none;stroke-width:1.00000012;stroke-miterlimit:4;stroke-dasharray:none;stroke-opacity:1"
           id="path5540" />
        <path
           d="m 1759.0542,590.36931 0,7.37456 8.5573,0 0,5.93675 -8.5573,0 0,11.01546 q 0,1.80886 0.7189,2.45819 0.7189,0.62614 2.8524,0.62614 l 4.2671,0 0,5.93675 -7.1195,0 q -4.9164,0 -6.9803,-2.04076 -2.0408,-2.06394 -2.0408,-6.98032 l 0,-11.01546 -4.1279,0 0,-5.93675 4.1279,0 0,-7.37456 8.3022,0 z"
           style="font-weight:bold;font-size:47.49402237px;line-height:100%;fill:#ffffff;fill-opacity:1;stroke:none;stroke-width:1.00000012;stroke-miterlimit:4;stroke-dasharray:none;stroke-opacity:1"
           id="path5542" />
        <path
           d="m 1792.0078,604.81695 q -1.0899,-0.51019 -2.1799,-0.74209 -1.0667,-0.25509 -2.1567,-0.25509 -3.2003,0 -4.9396,2.06394 -1.7161,2.04076 -1.7161,5.86719 l 0,11.96626 -8.3021,0 0,-25.97329 8.3021,0 0,4.26704 q 1.6002,-2.55095 3.6641,-3.71047 2.0872,-1.18271 4.986,-1.18271 0.4174,0 0.9044,0.0464 0.487,0.0232 1.4146,0.13914 l 0.023,7.5137 z"
           style="font-weight:bold;font-size:47.49402237px;line-height:100%;fill:#ffffff;fill-opacity:1;stroke:none;stroke-width:1.00000012;stroke-miterlimit:4;stroke-dasharray:none;stroke-opacity:1"
           id="path5544" />
        <path
           d="m 1808.5426,603.05448 q -2.7596,0 -4.2206,1.99438 -1.4378,1.97119 -1.4378,5.70485 0,3.73366 1.4378,5.72804 1.461,1.97118 4.2206,1.97118 2.7133,0 4.1511,-1.97118 1.4378,-1.99438 1.4378,-5.72804 0,-3.73366 -1.4378,-5.70485 -1.4378,-1.99438 -4.1511,-1.99438 z m 0,-5.93675 q 6.7021,0 10.4589,3.61771 3.7801,3.61771 3.7801,10.01827 0,6.40056 -3.7801,10.01827 -3.7568,3.61771 -10.4589,3.61771 -6.7252,0 -10.5284,-3.61771 -3.7801,-3.61771 -3.7801,-10.01827 0,-6.40056 3.7801,-10.01827 3.8032,-3.61771 10.5284,-3.61771 z"
           style="font-weight:bold;font-size:47.49402237px;line-height:100%;fill:#ffffff;fill-opacity:1;stroke:none;stroke-width:1.00000012;stroke-miterlimit:4;stroke-dasharray:none;stroke-opacity:1"
           id="path5546" />
        <path
           d="m 1828.8342,587.63284 8.3022,0 0,36.08432 -8.3022,0 0,-36.08432 z"
           style="font-weight:bold;font-size:47.49402237px;line-height:100%;fill:#ffffff;fill-opacity:1;stroke:none;stroke-width:1.00000012;stroke-miterlimit:4;stroke-dasharray:none;stroke-opacity:1"
           id="path5548" />
        <path
           d="m 1446.3775,636.58786 14.8187,0 q 6.6093,0 10.1342,2.94518 3.5482,2.922 3.5482,8.34856 0,5.44976 -3.5482,8.39494 -3.5249,2.922 -10.1342,2.922 l -5.8904,0 0,12.01265 -8.9283,0 0,-34.62333 z m 8.9283,6.47013 0,9.67041 4.9396,0 q 2.5973,0 4.0119,-1.25228 1.4146,-1.27547 1.4146,-3.59452 0,-2.31904 -1.4146,-3.57133 -1.4146,-1.25228 -4.0119,-1.25228 l -4.9396,0 z"
           style="font-weight:bold;font-size:47.49402237px;line-height:100%;fill:#ffffff;fill-opacity:1;stroke:none;stroke-width:1.00000012;stroke-miterlimit:4;stroke-dasharray:none;stroke-opacity:1"
           id="path5550" />
        <path
           d="m 1500.0866,652.31098 q -1.09,-0.51019 -2.1799,-0.7421 -1.0668,-0.25509 -2.1568,-0.25509 -3.2002,0 -4.9395,2.06395 -1.7161,2.04076 -1.7161,5.86718 l 0,11.96627 -8.3022,0 0,-25.9733 8.3022,0 0,4.26704 q 1.6001,-2.55095 3.6641,-3.71047 2.0871,-1.18271 4.9859,-1.18271 0.4175,0 0.9045,0.0464 0.487,0.0232 1.4146,0.13914 l 0.023,7.51371 z"
           style="font-weight:bold;font-size:47.49402237px;line-height:100%;fill:#ffffff;fill-opacity:1;stroke:none;stroke-width:1.00000012;stroke-miterlimit:4;stroke-dasharray:none;stroke-opacity:1"
           id="path5552" />
        <path
           d="m 1516.6213,650.5485 q -2.7596,0 -4.2206,1.99438 -1.4378,1.97119 -1.4378,5.70485 0,3.73366 1.4378,5.72804 1.461,1.97119 4.2206,1.97119 2.7133,0 4.1511,-1.97119 1.4378,-1.99438 1.4378,-5.72804 0,-3.73366 -1.4378,-5.70485 -1.4378,-1.99438 -4.1511,-1.99438 z m 0,-5.93675 q 6.7021,0 10.4589,3.61771 3.7801,3.61771 3.7801,10.01827 0,6.40056 -3.7801,10.01827 -3.7568,3.61771 -10.4589,3.61771 -6.7252,0 -10.5284,-3.61771 -3.7801,-3.61771 -3.7801,-10.01827 0,-6.40056 3.7801,-10.01827 3.8032,-3.61771 10.5284,-3.61771 z"
           style="font-weight:bold;font-size:47.49402237px;line-height:100%;fill:#ffffff;fill-opacity:1;stroke:none;stroke-width:1.00000012;stroke-miterlimit:4;stroke-dasharray:none;stroke-opacity:1"
           id="path5554" />
        <path
           d="m 1554.5841,666.805 q -1.7161,2.27266 -3.78,3.33943 -2.064,1.06676 -4.7773,1.06676 -4.754,0 -7.8615,-3.73367 -3.1076,-3.75685 -3.1076,-9.55446 0,-5.8208 3.1076,-9.53127 3.1075,-3.73366 7.8615,-3.73366 2.7133,0 4.7773,1.06676 2.0639,1.06676 3.78,3.36262 l 0,-3.84962 8.3486,0 0,23.35278 q 0,6.26141 -3.9656,9.55446 -3.9424,3.31623 -11.4561,3.31623 -2.435,0 -4.7076,-0.37105 -2.2727,-0.37104 -4.5686,-1.13633 l 0,-6.47013 q 2.1799,1.25228 4.2671,1.85523 2.0871,0.62615 4.1974,0.62615 4.0816,0 5.9832,-1.78567 1.9016,-1.78566 1.9016,-5.58889 l 0,-1.78567 z m -5.4729,-16.16374 q -2.5742,0 -4.012,1.90162 -1.4378,1.90162 -1.4378,5.38018 0,3.57133 1.3914,5.42657 1.3915,1.83204 4.0584,1.83204 2.5973,0 4.0351,-1.90162 1.4378,-1.90161 1.4378,-5.35699 0,-3.47856 -1.4378,-5.38018 -1.4378,-1.90162 -4.0351,-1.90162 z"
           style="font-weight:bold;font-size:47.49402237px;line-height:100%;fill:#ffffff;fill-opacity:1;stroke:none;stroke-width:1.00000012;stroke-miterlimit:4;stroke-dasharray:none;stroke-opacity:1"
           id="path5556" />
        <path
           d="m 1590.251,652.31098 q -1.09,-0.51019 -2.1799,-0.7421 -1.0668,-0.25509 -2.1567,-0.25509 -3.2003,0 -4.9396,2.06395 -1.7161,2.04076 -1.7161,5.86718 l 0,11.96627 -8.3021,0 0,-25.9733 8.3021,0 0,4.26704 q 1.6002,-2.55095 3.6641,-3.71047 2.0872,-1.18271 4.986,-1.18271 0.4174,0 0.9044,0.0464 0.487,0.0232 1.4146,0.13914 l 0.023,7.51371 z"
           style="font-weight:bold;font-size:47.49402237px;line-height:100%;fill:#ffffff;fill-opacity:1;stroke:none;stroke-width:1.00000012;stroke-miterlimit:4;stroke-dasharray:none;stroke-opacity:1"
           id="path5558" />
        <path
           d="m 1606.0669,659.5232 q -2.5973,0 -3.9192,0.88124 -1.2987,0.88124 -1.2987,2.59733 0,1.57695 1.0436,2.48138 1.0668,0.88123 2.9452,0.88123 2.3422,0 3.9424,-1.66971 1.6001,-1.6929 1.6001,-4.22066 l 0,-0.95081 -4.3134,0 z m 12.6852,-3.13071 0,14.8187 -8.3718,0 0,-3.84962 q -1.6697,2.36543 -3.7568,3.45538 -2.0872,1.06676 -5.0788,1.06676 -4.0351,0 -6.5629,-2.34224 -2.5045,-2.36542 -2.5045,-6.12227 0,-4.56852 3.1307,-6.70204 3.1539,-2.13352 9.8791,-2.13352 l 4.8932,0 0,-0.64933 q 0,-1.97119 -1.5538,-2.87562 -1.5537,-0.92762 -4.8468,-0.92762 -2.6669,0 -4.9627,0.53339 -2.2959,0.53338 -4.2671,1.60014 l 0,-6.33099 q 2.6669,-0.64934 5.357,-0.974 2.6901,-0.34786 5.3802,-0.34786 7.0267,0 10.1342,2.78285 3.1308,2.75967 3.1308,8.99789 z"
           style="font-weight:bold;font-size:47.49402237px;line-height:100%;fill:#ffffff;fill-opacity:1;stroke:none;stroke-width:1.00000012;stroke-miterlimit:4;stroke-dasharray:none;stroke-opacity:1"
           id="path5560" />
        <path
           d="m 1650.5925,649.55131 q 1.577,-2.4118 3.7337,-3.66409 2.1799,-1.27547 4.7772,-1.27547 4.4758,0 6.818,2.75966 2.3422,2.75966 2.3422,8.02389 l 0,15.81589 -8.3485,0 0,-13.54322 q 0.023,-0.30148 0.023,-0.62614 0.023,-0.32467 0.023,-0.92762 0,-2.75966 -0.8117,-3.98876 -0.8117,-1.25228 -2.6205,-1.25228 -2.3654,0 -3.6641,1.948 -1.2755,1.94799 -1.3219,5.63527 l 0,12.75475 -8.3485,0 0,-13.54322 q 0,-4.31342 -0.7421,-5.54252 -0.7421,-1.25228 -2.6437,-1.25228 -2.3886,0 -3.6873,1.97119 -1.2987,1.94799 -1.2987,5.58889 l 0,12.77794 -8.3485,0 0,-25.9733 8.3485,0 0,3.80323 q 1.5306,-2.20309 3.5018,-3.31623 1.9944,-1.11314 4.383,-1.11314 2.6901,0 4.754,1.29866 2.064,1.29867 3.1307,3.6409 z"
           style="font-weight:bold;font-size:47.49402237px;line-height:100%;fill:#ffffff;fill-opacity:1;stroke:none;stroke-width:1.00000012;stroke-miterlimit:4;stroke-dasharray:none;stroke-opacity:1"
           id="path5562" />
      </g>
      <path
         id="path4405"
         d="m 1271.6581,606.87142 c 3.814,11.50126 15.2018,18.36204 26.7869,16.88678 l -15.3942,-46.43426 c -10.1715,5.73827 -15.2042,18.04379 -11.3927,29.54748"
         style="display:inline;fill:#979799;fill-opacity:1;fill-rule:nonzero;stroke:none"
         inkscape:connector-curvature="0" />
      <path
         id="path4407"
         d="m 1336.0375,661.49373 c -1.1299,1.57889 -2.953,2.5139 -4.8946,2.5139 l -16.4747,0 c -1.9416,0 -3.7647,-0.93501 -4.8946,-2.5139 l -7.0902,-9.89028 40.4443,0 z m -24.9786,-30.76375 c 3.106,0 5.6248,2.51885 5.6248,5.6248 0,3.106 -2.5188,5.6248 -5.6248,5.6248 -3.106,0 -5.6248,-2.5188 -5.6248,-5.6248 0,-3.10595 2.5188,-5.6248 5.6248,-5.6248 m 23.6933,0 c 3.1059,0 5.6248,2.51885 5.6248,5.6248 0,3.106 -2.5189,5.6248 -5.6248,5.6248 -3.106,0 -5.6248,-2.5188 -5.6248,-5.6248 0,-3.10595 2.5188,-5.6248 5.6248,-5.6248 m 12.6138,12.51519 0,-19.48697 -48.921,0 0,19.48697 -5.1486,0 0,11.13121 5.1486,0 0,4.9735 c 0,1.44323 0.4712,2.84695 1.3396,4.00149 l 8.452,11.23733 c 1.2582,1.67261 3.2269,2.65693 5.3214,2.65693 l 18.6951,0 c 2.0945,0 4.0632,-0.98432 5.3213,-2.65693 l 8.4545,-11.23733 c 0.8659,-1.15454 1.3371,-2.55826 1.3371,-4.00149 l 0,-4.9735 5.1487,0 0,-11.13121 z m 0,0"
         style="display:inline;fill:#979799;fill-opacity:1;fill-rule:nonzero;stroke:none"
         inkscape:connector-curvature="0" />
      <path
         id="path4409"
         d="m 1337.0539,557.92822 -2.208,-0.4564 0.3429,-1.6529 -11.8861,-2.45717 c -3.8708,-0.77464 -7.5565,-0.1258 -10.0111,1.50983 l -0.6538,3.15779 c 2.4546,-1.63563 6.1404,-2.28937 10.0112,-1.51226 l -0.7106,3.43653 3.518,0.72529 -7.5219,31.00061 c -0.1357,0.57481 -0.034,1.17924 0.2837,1.67757 0.3182,0.49832 0.824,0.84618 1.4013,0.96709 l 2.7063,0.55753 c 0.5773,0.12086 1.1792,0 1.6677,-0.33058 0.4909,-0.33058 0.824,-0.84618 0.9276,-1.42843 l 5.3855,-31.43967 3.5179,0.72776 0.343,-1.65291 2.2055,0.45391 -0.3404,1.6529 3.5746,0.74015 1.3619,-6.59189 -3.5747,-0.73767 z m 0,0"
         style="display:inline;fill:#515459;fill-opacity:1;fill-rule:nonzero;stroke:none"
         inkscape:connector-curvature="0" />
      <path
         id="path4411"
         d="m 1312.956,613.24868 c -2.166,0.16527 -4.0582,-1.45799 -4.2235,-3.6265 -0.1653,-2.16604 1.458,-4.05829 3.6241,-4.22356 2.1685,-0.16531 4.0607,1.45799 4.2259,3.62651 0.1653,2.16604 -1.458,4.05828 -3.6265,4.22355 m 6.7473,-6.98659 1.5148,-1.45803 -1.6085,-2.21535 -1.8577,0.98679 -2.277,-1.39882 0.039,-2.10188 -2.7039,-0.42926 -0.6143,2.01063 -2.6002,0.62166 -1.458,-1.51473 -2.2154,1.6085 0.9844,1.85521 -1.3964,2.27951 -2.1019,-0.0394 -0.4293,2.70387 2.0082,0.61675 0.6242,2.59778 -1.5148,1.45803 1.6085,2.21536 1.8552,-0.98432 2.277,1.39634 -0.037,2.10188 2.7039,0.42925 0.6143,-2.00815 2.6002,-0.62413 1.458,1.51472 2.2154,-1.6085 -0.9868,-1.8552 1.3988,-2.27952 2.1019,0.0394 0.4293,-2.70388 -2.0106,-0.61427 z m 0,0"
         style="display:inline;fill:#515459;fill-opacity:1;fill-rule:nonzero;stroke:none"
         inkscape:connector-curvature="0" />
      <path
         id="path4413"
         d="m 1369.6629,580.1462 -5.5631,5.14374 1.7393,1.88235 -1.5444,4.56888 1.6135,1.74669 4.6774,-1.18172 1.7418,1.88482 5.5655,-5.14375 z m 0,0"
         style="display:inline;fill:#515459;fill-opacity:1;fill-rule:nonzero;stroke:none"
         inkscape:connector-curvature="0" />
      <path
         id="path4415"
         d="m 1336.3705,602.94642 c 0.56,1.56161 -0.2492,3.28112 -1.8083,3.84361 -1.5616,0.56249 -3.2836,-0.24672 -3.8436,-1.80586 -0.5625,-1.56161 0.2467,-3.28359 1.8059,-3.84608 1.5616,-0.56249 3.2811,0.24671 3.846,1.80833 m -7.8599,-3.23429 -1.1644,6.48579 5.0327,4.25069 6.1971,-2.23263 1.1669,-6.48584 -5.0351,-4.25064 z m 0,0"
         style="display:inline;fill:#515459;fill-opacity:1;fill-rule:nonzero;stroke:none"
         inkscape:connector-curvature="0" />
      <path
         id="path4417"
         d="m 1252.5782,689.85459 -3.4267,11.97736 -0.3405,0 -3.6536,-11.97736 c -0.338,-1.16692 -0.7525,-1.54433 -1.9194,-1.54433 l -10.095,0 0,26.3675 7.4208,0 0,-15.97151 0.375,0 4.7465,14.46416 c 0.3405,1.09286 0.7155,1.50735 1.6949,1.50735 l 2.7137,0 c 0.977,0 1.3174,-0.37747 1.6949,-1.50735 l 4.744,-14.46416 0.3775,0 0,15.97151 7.6452,0 0,-26.3675 -10.0555,0 c -1.1669,0 -1.5814,0.37741 -1.9218,1.54433"
         style="display:inline;fill:#515459;fill-opacity:1;fill-rule:nonzero;stroke:none"
         inkscape:connector-curvature="0" />
      <path
         id="path4419"
         d="m 1281.3658,708.91478 c -1.8453,0.90293 -2.5977,0.97942 -3.4662,0.97942 l -0.3379,0 c -0.602,0 -1.0534,-0.0765 -1.3568,-0.37746 -0.301,-0.30099 -0.375,-0.75242 -0.375,-1.39388 0,-0.56492 0.037,-1.01641 0.4144,-1.39387 0.375,-0.37495 0.9399,-0.48848 2.7853,-0.48848 l 2.3362,0 z m 2.0724,-16.02821 -8.8147,0 c -2.0329,0 -3.1258,0.33796 -3.9917,1.20637 -0.9054,0.90293 -1.2433,2.1093 -1.2804,5.83695 l 7.0409,0 c 0.039,-0.94238 0.077,-1.12988 0.3405,-1.39386 0.2269,-0.22449 0.6019,-0.30098 1.2433,-0.30098 l 1.8084,0 c 0.6389,0 1.0164,0.0765 1.2409,0.30098 0.2639,0.26398 0.3404,0.52792 0.3404,2.18579 l 0,2.16604 c -2.2597,-0.41446 -4.596,-0.64141 -6.5548,-0.64141 -2.4843,0 -3.9917,0.30345 -5.0081,1.31985 -0.9794,0.97942 -1.3198,2.56073 -1.3198,5.27199 0,2.86423 0.4909,4.10759 1.2063,4.82302 0.829,0.82895 1.8083,1.05344 3.6537,1.05344 l 2.5238,0 c 1.8823,0 2.9752,-0.26399 5.4989,-2.25982 l 0,2.22283 7.6083,0 0,-14.97235 c 0,-3.39217 -0.3774,-4.59606 -1.2804,-5.57548 -0.8658,-0.9054 -2.3732,-1.24336 -4.2555,-1.24336"
         style="display:inline;fill:#515459;fill-opacity:1;fill-rule:nonzero;stroke:none"
         inkscape:connector-curvature="0" />
      <path
         id="path4421"
         d="m 1307.462,692.88657 -5.6495,8.68391 -0.9769,0 0,-15.33007 -7.6478,0 0,28.43735 7.6478,0 0,-7.79826 1.0164,0 4.7835,7.79826 8.6617,0 -7.0803,-11.07447 7.1544,-10.71672 z m 0,0"
         style="display:inline;fill:#515459;fill-opacity:1;fill-rule:nonzero;stroke:none"
         inkscape:connector-curvature="0" />
      <path
         id="path4423"
         d="m 1323.5198,700.81312 c 0.1184,-2.07727 0.3627,-2.44236 0.523,-2.60273 0.1851,-0.18749 0.4959,-0.24919 1.4309,-0.24919 l 3.3995,0 c 0.9326,0 1.2435,0.0616 1.431,0.24919 0.1677,0.16774 0.3897,0.51808 0.4983,2.60273 z m 13.5711,0.69567 c -0.064,-4.38882 -0.5921,-6.28844 -1.6825,-7.37638 -0.8388,-0.84124 -1.9909,-1.24584 -4.263,-1.24584 l -7.9142,0 c -2.2721,0 -3.4539,0.4046 -4.2951,1.24584 -1.2755,1.24335 -2.3659,3.6413 -2.3659,9.64852 0,6.00964 1.0904,8.40511 2.3659,9.65095 0.8412,0.84129 2.023,1.24588 4.2951,1.24588 l 7.9142,0 c 2.2721,0 3.4242,-0.40459 4.263,-1.24588 1.009,-0.98185 1.5123,-2.64461 1.6504,-6.21195 l -6.2884,0 c -0.116,1.6751 -0.3133,1.98102 -0.4662,2.13401 -0.1875,0.18745 -0.4984,0.24914 -1.431,0.24914 l -3.3995,0 c -0.935,0 -1.2458,-0.0617 -1.4309,-0.24914 -0.2023,-0.19988 -0.5353,-0.69573 -0.5846,-4.527 l 13.6327,0 z m 0,0"
         style="display:inline;fill:#515459;fill-opacity:1;fill-rule:nonzero;stroke:none"
         inkscape:connector-curvature="0" />
      <path
         id="path4425"
         d="m 1372.3347,694.45066 3.3527,0 c 1.1299,0 1.5074,0.074 1.7343,0.30098 0.2245,0.22695 0.5255,0.71542 0.639,3.99411 l 7.5713,0 c -0.074,-5.31149 -0.7154,-7.61077 -2.0353,-8.92814 -1.0164,-1.01646 -2.4103,-1.50735 -5.1585,-1.50735 l -8.8147,0 c -2.7482,0 -4.1816,0.49089 -5.198,1.50735 -1.5444,1.50735 -2.8618,4.40609 -2.8618,11.67638 0,7.27033 1.3174,10.16908 2.8618,11.67642 1.0164,1.01641 2.4498,1.50735 5.198,1.50735 l 8.8147,0 c 2.7482,0 4.1421,-0.49094 5.1585,-1.50735 1.3569,-1.31742 1.9613,-3.65367 2.0353,-9.03919 l -7.5713,0 c -0.1135,3.38969 -0.4145,3.87816 -0.639,4.10512 -0.2269,0.227 -0.6044,0.30097 -1.7343,0.30097 l -3.3527,0 c -1.1298,0 -1.5048,-0.074 -1.7318,-0.30097 -0.264,-0.26395 -0.7154,-0.94239 -0.7154,-6.74235 0,-5.76294 0.4514,-6.47842 0.7154,-6.74235 0.227,-0.22696 0.602,-0.30098 1.7318,-0.30098"
         style="display:inline;fill:#ff4235;fill-opacity:1;fill-rule:nonzero;stroke:none"
         inkscape:connector-curvature="0" />
      <path
         id="path4427"
         d="m 1388.9378,688.31026 0,6.17738 7.7218,0 0,20.19012 8.0992,0 0,-20.19012 7.9092,0 0,-6.17738 z m 0,0"
         style="display:inline;fill:#ff4235;fill-opacity:1;fill-rule:nonzero;stroke:none"
         inkscape:connector-curvature="0" />
      <path
         id="path4429"
         d="m 1341.4452,694.47898 3.8609,0 0,14.03 -3.8609,0 0,6.16878 15.821,0 0,-6.16878 -3.8634,0 0,-14.03 3.8634,0 0,-6.16872 -15.821,0 z m 0,0"
         style="display:inline;fill:#ff4235;fill-opacity:1;fill-rule:nonzero;stroke:none"
         inkscape:connector-curvature="0" />
      <path
         id="path4431"
         d="m 1355.4726,580.4694 -6.8977,-3.00238 6.7226,-10.81786 -19.4056,11.8466 6.8978,3.00237 -6.7226,10.82034 z m 0,0"
         style="display:inline;fill:#ff4235;fill-opacity:1;fill-rule:nonzero;stroke:none"
         inkscape:connector-curvature="0" />
      <path
         id="path4433"
         d="m 1362.5998,593.33487 -3.1257,2.89137 c -0.6537,0.60443 -1.5023,0.91773 -2.3929,0.88317 -0.8907,-0.0344 -1.7122,-0.41445 -2.3166,-1.06819 -2.0772,-2.24501 -5.5927,-2.38314 -7.8401,-0.30592 -2.2475,2.07721 -2.3832,5.59276 -0.3085,7.8402 l 6.1133,6.60917 c 1.2015,1.3001 1.12,3.33537 -0.1776,4.5368 -1.3001,1.2039 -3.3354,1.1225 -4.5393,-0.17759 -2.1216,-2.29432 -5.7161,-2.43499 -8.0129,-0.31331 l -3.1257,2.89132 c -0.4737,0.43916 -0.5033,1.17678 -0.064,1.65044 0.4367,0.47367 1.1768,0.50327 1.6529,0.0666 l 3.1257,-2.89137 c 1.3495,-1.24831 3.4612,-1.16444 4.7095,0.18502 2.0749,2.24501 5.5928,2.38314 7.8403,0.30593 2.2474,-2.07727 2.3831,-5.59277 0.3059,-7.8402 l -6.1108,-6.6116 c -1.2015,-1.29767 -1.1225,-3.33543 0.1776,-4.53685 1.3001,-1.20148 3.3354,-1.12251 4.5368,0.17759 1.0288,1.11265 2.4301,1.75901 3.9423,1.81823 1.5123,0.0592 2.958,-0.47367 4.0706,-1.50245 l 3.1282,-2.89132 z m 0,0"
         style="display:inline;fill:#ff4235;fill-opacity:1;fill-rule:nonzero;stroke:none"
         inkscape:connector-curvature="0" />
      <path
         id="path4435"
         d="m 1307.3806,565.62285 c -1.5765,-4.69226 -6.661,-7.21849 -11.3532,-5.6396 -4.6923,1.57642 -7.2185,6.66096 -5.6396,11.35323 l 6.0392,17.96239 c 0.3158,0.93991 1.3322,1.44319 2.2697,1.1274 0.9399,-0.31577 1.4432,-1.33217 1.1274,-2.26965 l -4.5788,-13.62537 c -0.3158,-0.93743 0.19,-1.95383 1.1274,-2.26962 0.9375,-0.31577 1.9564,0.18993 2.2721,1.12741 l 6.883,20.47629 c 0.3158,0.93743 1.3322,1.44319 2.2697,1.12741 0.9399,-0.31578 1.4457,-1.33219 1.1299,-2.27214 l -5.0722,-15.08336 c -0.3158,-0.9399 0.19,-1.95636 1.1274,-2.26966 0.9375,-0.31577 1.9563,0.1875 2.2721,1.12746 l 1.8035,5.36328 c 0.3157,0.93997 1.3321,1.44318 2.2696,1.12741 0.9399,-0.31579 1.4432,-1.33218 1.1274,-2.26962 z m 0,0"
         style="display:inline;fill:#ff4235;fill-opacity:1;fill-rule:nonzero;stroke:none"
         inkscape:connector-curvature="0" />
    </g>
  </g>
</svg>
