<?xml version="1.0" encoding="UTF-8" standalone="no"?>
<!-- Created with Inkscape (http://www.inkscape.org/) -->

<svg
   xmlns:dc="http://purl.org/dc/elements/1.1/"
   xmlns:cc="http://creativecommons.org/ns#"
   xmlns:rdf="http://www.w3.org/1999/02/22-rdf-syntax-ns#"
   xmlns:svg="http://www.w3.org/2000/svg"
   xmlns="http://www.w3.org/2000/svg"
   xmlns:sodipodi="http://sodipodi.sourceforge.net/DTD/sodipodi-0.dtd"
   xmlns:inkscape="http://www.inkscape.org/namespaces/inkscape"
   sodipodi:docname="logo-header.svg"
   inkscape:version="0.91 r13725"
   version="1.1"
   id="svg2"
   height="120"
   width="480"
   inkscape:export-filename="/home/dom/Dropbox/MakerSpace/Graphics/MakeICT-Logo.png"
   inkscape:export-xdpi="90"
   inkscape:export-ydpi="90">
  <sodipodi:namedview
     id="base"
     pagecolor="#ffffff"
     bordercolor="#666666"
     borderopacity="1.0"
     inkscape:pageopacity="0.0"
     inkscape:pageshadow="2"
     inkscape:zoom="1"
     inkscape:cx="315.31015"
     inkscape:cy="151.11834"
     inkscape:document-units="px"
     inkscape:current-layer="layer1"
     showgrid="false"
     showguides="false"
     inkscape:guide-bbox="true"
     inkscape:window-width="1280"
     inkscape:window-height="1023"
     inkscape:window-x="1920"
     inkscape:window-y="0"
     inkscape:window-maximized="1"
     inkscape:object-paths="true"
     inkscape:snap-to-guides="true"
     inkscape:snap-global="true"
     inkscape:snap-intersection-paths="false"
     inkscape:object-nodes="true"
     inkscape:snap-smooth-nodes="true"
     fit-margin-top="0"
     fit-margin-left="0"
     fit-margin-right="0"
     fit-margin-bottom="0"
     showborder="true"
     inkscape:snap-bbox="true"
     inkscape:snap-bbox-midpoints="true"
     inkscape:snap-nodes="true"
     inkscape:showpageshadow="false">
    <sodipodi:guide
       orientation="1,0"
       position="-1.1871312,77.231865"
       id="guide3799" />
    <sodipodi:guide
       orientation="1,0"
       position="13.545011,76.249715"
       id="guide3801" />
    <sodipodi:guide
       orientation="0,1"
       position="357.28608,166.49583"
       id="guide3893" />
    <sodipodi:guide
       orientation="0,1"
       position="486.53608,89.383645"
       id="guide3935" />
    <sodipodi:guide
       orientation="1,0"
       position="506.41108,78.995825"
       id="guide3937" />
    <sodipodi:guide
       orientation="0,1"
       position="683.69679,129.11583"
       id="guide4264" />
    <sodipodi:guide
       orientation="1,0"
       position="683.69679,129.11583"
       id="guide4266" />
    <sodipodi:guide
       orientation="0,1"
       position="357.53608,61.027073"
       id="guide4350" />
  </sodipodi:namedview>
  <defs
     id="defs4" />
  <metadata
     id="metadata7">
    <rdf:RDF>
      <cc:Work
         rdf:about="">
        <dc:format>image/svg+xml</dc:format>
        <dc:type
           rdf:resource="http://purl.org/dc/dcmitype/StillImage" />
        <dc:title></dc:title>
      </cc:Work>
    </rdf:RDF>
  </metadata>
  <g
     inkscape:label="Layer 1"
     inkscape:groupmode="layer"
     id="layer1"
     transform="translate(-70.963918,-698.12079)">
    <path
       style="fill:#ffffff;fill-opacity:1;stroke:#000000;stroke-width:1;stroke-opacity:1"
       d="m 280.4681,711.05205 c -0.34277,0.0329 -0.82545,0.15202 -1.20445,0.46914 -0.67376,0.56373 -0.63985,1.89533 -0.63985,1.89533 -0.007,0.13892 0,0.22518 0,0.22518 l 0,5.47956 0,2.25188 0,42.82313 0,2.25188 0,5.47956 c 0,0 -0.007,0.0863 0,0.22518 0,0 -0.0339,1.3316 0.63985,1.89532 0.50532,0.42284 1.18056,0.46964 1.48674,0.46913 2.91703,-0.0106 5.83397,-0.0231 8.75102,0 0.30618,5.1e-4 0.98141,-0.0463 1.48674,-0.46913 0.67375,-0.56372 0.63986,-1.89532 0.63986,-1.89532 l 0,-5.70474 0,-2.25188 0,-13.41741 45.09127,23.73848 c 0,0 4.63023,0.0437 7.30194,0 0.89056,-0.0145 3.82353,-0.70705 4.21554,-3.07754 0.392,-2.37051 -1.7023,-5.77845 -5.30708,-7.52501 l -39.03143,-21.13009 39.03143,-21.13008 c 3.60478,-1.74655 5.69908,-5.1545 5.30708,-7.52501 -0.39201,-2.37049 -3.32498,-3.06301 -4.21554,-3.07756 -2.67171,-0.0437 -7.30194,0.13136 -7.30194,0.13136 l -45.09127,23.60714 0,-13.41741 0,-2.25188 0,-5.47956 0,-0.22518 c 0,0 0.0338,-1.3316 -0.63986,-1.89533 -0.50533,-0.42283 -1.18056,-0.46964 -1.48674,-0.46914 -2.91705,0.0231 -5.83399,0.0106 -8.75102,0 -0.0766,-1.2e-4 -0.16805,-0.011 -0.28229,0 z"
       id="rect3872"
       inkscape:connector-curvature="0"
       sodipodi:nodetypes="scccccccccccccccccccscccsscccccccccs" />
    <path
       style="fill:#ffffff;fill-opacity:1;stroke:#000000;stroke-width:1px;stroke-linecap:butt;stroke-linejoin:miter;stroke-opacity:1"
       d="m 75.242535,711.08958 c -1.291726,0 -3.650963,2.09166 -3.650963,4.24103 l 0,56.31561 c 0,0 0.08653,1.94614 1.88194,2.87112 1.795413,0.92502 7.05546,0.87035 8.863937,-0.0375 1.808477,-0.90786 1.976038,-2.8336 1.976038,-2.8336 l 0,-39.27643 34.345403,40.8152 c 0.71833,0.84773 1.85079,1.33235 3.14284,1.33235 l 7.01964,0 c 1.29204,0 2.4245,-0.48462 3.14284,-1.33235 l 34.36421,-40.8152 0,39.27643 c 0,0 0.14875,1.92574 1.95723,2.8336 1.80848,0.90786 7.08734,0.96254 8.88275,0.0375 1.79541,-0.92498 1.86312,-2.87112 1.86312,-2.87112 l 0,-56.31561 c 0,-2.14937 -2.35923,-4.24103 -3.65096,-4.24103 l -6.71852,0 c -2.64544,0 -3.45809,1.39661 -4.61076,2.70225 l -38.73032,45.7881 -38.749145,-45.7881 c -1.152657,-1.30564 -1.946494,-2.70225 -4.591933,-2.70225 z"
       id="path3778"
       inkscape:connector-curvature="0"
       sodipodi:nodetypes="sscssccccccccsscssscccss" />
    <path
       style="fill:#ffffff;fill-opacity:1;stroke:#000000;stroke-width:1;stroke-opacity:1"
       d="m 229.67453,710.47032 c -5.68956,-2e-5 -7.43365,2.47706 -7.43365,2.47706 l -35.9827,53.70719 c -2.2088,3.35897 -1.56426,7.96389 3.78269,7.86277 5.34696,-0.10109 6.0034,-0.84445 6.0034,-0.84445 l 10.59531,-15.20014 46.08872,0 10.59532,15.20014 c 0,0 0.65643,0.74336 6.00338,0.84445 5.34696,0.10112 5.9915,-4.5038 3.78271,-7.86277 l -35.98269,-53.70719 c 0,0 -1.76294,-2.47705 -7.45249,-2.47706 z m -0.22583,15.91325 15.0367,21.055 -29.86639,0 z"
       id="rect3829"
       inkscape:connector-curvature="0"
       sodipodi:nodetypes="sccsccccsccscccc" />
    <path
       style="fill:#ffffff;fill-opacity:1;stroke:#000000;stroke-width:1;stroke-linejoin:round;stroke-miterlimit:4;stroke-dasharray:none;stroke-opacity:1"
       d="m 379.15702,711.18341 c -10.50305,0 -25.21798,2.86328 -25.21798,17.03918 l 0,29.27435 c 0,14.1759 14.71493,17.01595 25.21798,17.0204 l 44.16915,0.0188 c 1.02981,4.3e-4 2.4277,-1.37808 2.4277,-3.65929 l 0,-3.49041 c 0,-2.28122 -1.39789,-3.6593 -2.4277,-3.6593 l -44.16915,0 c -4.20158,0 -11.96913,-1.52111 -11.96913,-6.23019 l 0,-9.38279 56.13828,0 c 1.02981,0 2.4277,-1.37808 2.4277,-3.65929 l 0,-3.49041 c 0,-2.28122 -1.39789,-3.65929 -2.4277,-3.65929 l -56.13828,0 0,-9.08256 c 0,-4.70906 7.76755,-6.23019 11.96913,-6.23019 l 15.112,0 c 1.0298,0 2.42769,-1.37808 2.42769,-3.65929 l 0,-3.49041 c 0,-2.28122 -1.39789,-3.6593 -2.42769,-3.6593 z"
       id="rect3911"
       inkscape:connector-curvature="0"
       sodipodi:nodetypes="sccssssssscsssscsssssss" />
    <path
       style="fill:#ffffff;fill-opacity:1;stroke:#000000;stroke-width:0.99999988;stroke-linejoin:round;stroke-miterlimit:4;stroke-opacity:1"
       d="m 442.56228,711.18341 c -1.49064,0 -2.48416,0.48459 -2.48416,2.00147 l 0,1.44029 0,6.07921 0,25.45778 0,7.03317 0,1.49641 c 0,1.56277 0.99352,2.05757 2.48416,2.05757 l 1.97603,0 0.94098,0 1.97603,0 c 1.49063,0 2.48416,-0.4948 2.48416,-2.05757 l 0,-1.49641 0,-7.03317 0,-25.45778 0,-6.07921 0,-1.44029 c 0,-1.51688 -0.99353,-2.00147 -2.48416,-2.00147 l -1.97603,0 -0.94098,0 -1.97603,0 z"
       id="rect3943"
       inkscape:connector-curvature="0" />
    <path
       style="fill:#ffffff;fill-opacity:1;stroke:#000000;stroke-width:0.99999988;stroke-linejoin:round;stroke-miterlimit:4;stroke-opacity:1"
       d="m 502.12568,711.18641 c -1.68199,0 -2.22069,0.74049 -2.22069,1.85781 l 0,1.48248 0,0.71309 0,1.48248 c 0,1.11732 0.5387,1.85779 2.22069,1.85779 l 1.59964,0 6.73735,0 9.67318,0 0,2.12053 0,25.46493 0,7.0371 0,1.48248 c 0,1.56276 0.99351,2.06421 2.48415,2.06421 l 1.97604,0 0.94097,0 1.97603,0 c 1.49064,0 2.48418,-0.50145 2.48418,-2.06421 l 0,-1.48248 0,-7.0371 0,-25.46493 0,-2.12053 8.69455,0 7.81005,0 1.65611,0 c 1.73286,0 2.27715,-0.74047 2.27715,-1.85779 l 0,-1.48248 0,-0.71309 0,-1.48248 c 0,-1.11732 -0.54429,-1.85781 -2.27715,-1.85781 l -1.65611,0 -7.81005,0 -11.17873,0 -4.89304,0 -12.15733,0 -6.73735,0 -1.59964,0 z"
       id="path3952"
       inkscape:connector-curvature="0" />
    <path
       style="fill:#8ca1bc;fill-opacity:1;stroke:#000000;stroke-width:1;stroke-linejoin:round;stroke-miterlimit:4;stroke-opacity:1"
       d="m 483.62621,702.94831 c -0.84149,0.004 -1.35501,0.75791 -1.35501,1.50124 l 0,3.99709 c -1.93249,0.27544 -3.78422,0.76303 -5.55172,1.44495 l -1.97602,-3.43411 c -0.37274,-0.64375 -1.20791,-1.03578 -1.9384,-0.61926 l -4.23438,2.43953 c -0.72694,0.42265 -0.78675,1.32664 -0.41402,1.97039 l 1.95722,3.41533 c -1.51395,1.19327 -2.87575,2.55319 -4.08381,4.05337 l -3.40631,-1.95162 c -0.64561,-0.37167 -1.55226,-0.31206 -1.97604,0.41284 l -2.44652,4.22227 c -0.41761,0.72846 -0.0245,1.56119 0.62103,1.93286 l 3.36868,1.93285 c -0.70401,1.77247 -1.21545,3.63164 -1.50555,5.5734 l -3.8768,0 c -0.74548,0 -1.50205,0.51204 -1.50556,1.35112 l 0,4.87906 c 0.004,0.83908 0.76008,1.35111 1.50556,1.35111 l 3.8768,0 c 0.2901,1.94176 0.80154,3.80093 1.50555,5.5734 l -3.36868,1.93285 c -0.6456,0.37167 -1.03874,1.20445 -0.62103,1.93287 l 2.44652,4.22226 c 0.42388,0.72486 1.33044,0.78451 1.97604,0.41285 l 3.40631,-1.95163 c 1.20806,1.50019 2.56986,2.8601 4.08381,4.05338 l -1.95722,3.41532 c -0.37273,0.64376 -0.31297,1.54784 0.41402,1.9704 l 4.23438,2.43953 c 0.73054,0.41642 1.56566,0.0244 1.9384,-0.61927 l 1.97602,-3.4341 c 1.7675,0.68192 3.61923,1.16951 5.55172,1.44495 l 0,3.99707 c 0,0.74335 0.51352,1.49765 1.35501,1.50125 l 4.89304,0 c 0.84149,-0.004 1.355,-0.7579 1.355,-1.50125 l 0,-4.05337 c 1.75848,-0.27214 3.44288,-0.72359 5.06241,-1.33236 l 0,-6.23019 c -2.70616,1.38436 -5.76387,2.17681 -9.01449,2.17681 -10.93414,0 -19.798,-8.83852 -19.798,-19.74142 0,-10.90289 8.86386,-19.74141 19.798,-19.74141 3.25062,0 6.30833,0.79246 9.01449,2.17681 l 0,-6.23019 c -1.61953,-0.60876 -3.30393,-1.06022 -5.06241,-1.33235 l 0,-4.05339 c 0,-0.74333 -0.51351,-1.49774 -1.355,-1.50124 l -4.89304,0 z"
       id="path3959"
       inkscape:connector-curvature="0" />
    <path
       id="path4341"
       d="m 462.63156,761.20294 c -0.71406,0.0565 -1.10173,0.72947 -1.0542,1.36045 l 0.25552,3.39286 c -1.62279,0.35663 -3.16343,0.88822 -4.62015,1.57939 l -1.89686,-2.78939 c -0.35754,-0.52275 -1.09152,-0.80244 -1.68496,-0.40245 l -3.43835,2.3399 c -0.59003,0.40497 -0.58302,1.17609 -0.22547,1.69885 l 1.87968,2.77467 c -1.20883,1.10911 -2.27784,2.35001 -3.20738,3.70022 l -3.01615,-1.44011 c -0.57178,-0.27445 -1.33758,-0.16624 -1.65096,0.47604 l -1.80677,3.7395 c -0.30792,0.6449 0.079,1.32675 0.65072,1.60122 l 2.98301,1.42656 c -0.48429,1.54927 -0.79956,3.15993 -0.9217,4.82659 l -3.29076,0.24641 c -0.63279,0.0473 -1.24226,0.53011 -1.1916,1.24258 l 0.31189,4.14151 c 0.0567,0.71203 0.73156,1.09858 1.36434,1.0512 l 3.29077,-0.24641 c 0.37038,1.62979 0.92336,3.17541 1.63425,4.6352 l -2.73589,1.85479 c -0.52426,0.35653 -0.80473,1.0884 -0.4036,1.68016 l 2.3466,3.4285 c 0.40613,0.58835 1.17947,0.58136 1.70372,0.22484 l 2.76664,-1.8731 c 1.12134,1.19661 2.36421,2.26442 3.7256,3.18108 l -1.44303,3.02345 c -0.27524,0.57014 -0.16672,1.33375 0.4774,1.64623 l 3.75023,1.80163 c 0.64673,0.30704 1.33055,-0.0788 1.6058,-0.64886 l 1.4578,-3.0406 c 1.54391,0.46651 3.14689,0.76269 4.80488,0.87366 l 0.25552,3.39286 c 0.0475,0.63098 0.53162,1.23862 1.24612,1.1882 l 4.15341,-0.311 c 0.71404,-0.0564 1.10172,-0.72946 1.05419,-1.36044 l -0.2591,-3.44066 c 1.60443,-0.37278 3.13116,-0.90694 4.56981,-1.60765 l 1.95078,2.86544 c 0.35754,0.52275 1.09146,0.80236 1.68497,0.40245 l 3.43833,-2.3399 c 0.59009,-0.40489 0.58304,-1.17609 0.22549,-1.69884 l -1.96915,-2.89612 c 1.17544,-1.09994 2.20897,-2.3307 3.11392,-3.66119 l 3.19908,1.52252 c 0.57176,0.27446 1.33748,0.1662 1.65094,-0.47604 l 1.80679,-3.73951 c 0.308,-0.64484 -0.079,-1.32674 -0.65073,-1.60121 l -3.19907,-1.52252 c 0.46405,-1.51434 0.76306,-3.08606 0.88215,-4.71149 l 3.54637,-0.26554 c 0.63278,-0.0474 1.24217,-0.53011 1.1916,-1.24259 l -0.31189,-4.14152 c -0.0567,-0.71202 -0.73156,-1.09856 -1.36435,-1.05118 l -3.54636,0.26555 c -0.36121,-1.58947 -0.89227,-3.09904 -1.57792,-4.5273 l 2.93517,-1.98185 c 0.52424,-0.35652 0.80466,-1.08834 0.40361,-1.68014 l -2.34662,-3.42851 c -0.40606,-0.58841 -1.17947,-0.58136 -1.70372,-0.22483 l -2.93517,1.98185 c -1.09407,-1.18083 -2.30034,-2.24388 -3.62734,-3.15642 l 1.5133,-3.15689 c 0.27523,-0.57011 0.16667,-1.33364 -0.4774,-1.64621 l -3.75022,-1.80163 c -0.64671,-0.30712 -1.33057,0.0788 -1.6058,0.64887 l -1.49974,3.12382 c -1.52746,-0.47862 -3.11707,-0.77944 -4.75935,-0.9091 l -0.2591,-3.44065 c -0.0475,-0.63099 -0.53163,-1.23872 -1.24614,-1.1882 l -4.1534,0.311 z m 2.64827,9.14064 c 9.28128,-0.69498 17.37028,6.2441 18.06724,15.49889 0.69696,9.25476 -6.262,17.32062 -15.5433,18.0156 -9.2813,0.69497 -17.37028,-6.24412 -18.06725,-15.49888 -0.69697,-9.25476 6.26201,-17.32062 15.54331,-18.01561 z"
       style="fill:#b7c7d7;fill-opacity:1;stroke:#000000;stroke-width:1;stroke-linejoin:round;stroke-miterlimit:4;stroke-opacity:1"
       inkscape:connector-curvature="0" />
    <path
       inkscape:connector-curvature="0"
       style="fill:#838383;fill-opacity:1;stroke:#000000;stroke-width:1;stroke-linejoin:round;stroke-miterlimit:4;stroke-opacity:1"
       d="m 507.74704,766.99922 c -0.53595,0.1112 -0.76518,0.65844 -0.66847,1.13231 l 0.52003,2.5481 c -1.19612,0.42557 -2.31314,0.97595 -3.35117,1.63931 l -1.70649,-1.93358 c -0.32136,-0.36218 -0.90477,-0.50405 -1.31627,-0.14402 l -2.38197,2.10293 c -0.40844,0.36346 -0.32896,0.94748 -0.008,1.30964 l 1.69205,1.92407 c -0.80988,0.95653 -1.50107,1.99962 -2.07602,3.11225 l -2.4254,-0.8035 c -0.45992,-0.1534 -1.03015,0.002 -1.20599,0.51882 l -1.0103,3.00813 c -0.17144,0.51841 0.18748,0.99841 0.64738,1.15182 l 2.39896,0.79641 c -0.21819,1.221 -0.30235,2.47236 -0.23465,3.74773 l -2.47143,0.50152 c -0.47522,0.0964 -0.89091,0.52072 -0.78398,1.05607 l 0.63478,3.11034 c 0.11153,0.53444 0.66033,0.76301 1.13555,0.66657 l 2.47142,-0.50149 c 0.43757,1.20031 1.00548,2.31935 1.68489,3.35821 l -1.89602,1.66795 c -0.36321,0.32045 -0.50549,0.90219 -0.14444,1.31249 l 2.10896,2.37517 c 0.36452,0.40728 0.95021,0.32802 1.31341,0.007 l 1.91757,-1.68477 c 0.96531,0.80008 2.01037,1.49085 3.13074,2.05568 l -0.80335,2.43044 c -0.15386,0.45861 0.002,1.02719 0.52028,1.20254 l 3.01675,1.00743 c 0.5199,0.17095 1.00128,-0.18695 1.15514,-0.64554 l 0.81292,-2.44483 c 1.21547,0.20609 2.45937,0.27739 3.72715,0.20297 l 0.52003,2.54809 c 0.0967,0.47388 0.52222,0.88831 1.05911,0.78175 l 3.11926,-0.63297 c 0.53596,-0.1112 0.7652,-0.65844 0.66848,-1.1323 l -0.52735,-2.58399 c 1.18067,-0.43607 2.28689,-0.98707 3.31029,-1.65593 l 1.7547,1.9861 c 0.32135,0.36216 0.90472,0.50399 1.31627,0.14401 l 2.38196,-2.10293 c 0.40848,-0.36342 0.32897,-0.94748 0.007,-1.30965 l -1.77157,-2.00758 c 0.78546,-0.94638 1.45075,-1.9784 2.00893,-3.07374 l 2.57201,0.8485 c 0.45992,0.15342 1.03009,-0.002 1.20599,-0.51881 l 1.01031,-3.00813 c 0.17151,-0.51838 -0.18747,-0.99841 -0.64738,-1.15183 l -2.57201,-0.84856 c 0.20621,-1.19258 0.28176,-2.41287 0.21575,-3.65669 l 2.66338,-0.54045 c 0.47522,-0.0964 0.89085,-0.52072 0.78399,-1.05609 l -0.63478,-3.11033 c -0.11153,-0.53444 -0.66033,-0.76302 -1.13556,-0.66657 l -2.66338,0.54044 c -0.42673,-1.17062 -0.97456,-2.26441 -1.63179,-3.28178 l 2.03489,-1.78333 c 0.36319,-0.32045 0.50544,-0.90215 0.14444,-1.31251 l -2.10896,-2.37517 c -0.36447,-0.4073 -0.95021,-0.32801 -1.31342,-0.007 l -2.03489,1.78333 c -0.9431,-0.79068 -1.95995,-1.48137 -3.05387,-2.04638 l 0.8438,-2.53829 c 0.15387,-0.4586 -0.002,-1.02714 -0.52028,-1.20255 l -3.01675,-1.00741 c -0.51988,-0.17104 -1.00127,0.18694 -1.15514,0.64553 l -0.8367,2.51193 c -1.20417,-0.21683 -2.43838,-0.29292 -3.69604,-0.23419 l -0.52736,-2.58397 c -0.0967,-0.47389 -0.52222,-0.88838 -1.05911,-0.78176 l -3.11926,0.63296 z m 2.88702,6.67736 c 6.9704,-1.41445 13.77093,3.07338 15.18944,10.02384 1.4185,6.95047 -3.08221,13.73159 -10.0526,15.14601 -6.97039,1.41446 -13.77092,-3.07339 -15.18942,-10.02384 -1.4185,-6.95047 3.08221,-13.73158 10.05258,-15.14601 z"
       id="path4346" />
    <text
       xml:space="preserve"
       style="font-style:normal;font-weight:normal;font-size:32.49634933px;line-height:125%;font-family:sans-serif;letter-spacing:0px;word-spacing:0px;fill:#ffffff;fill-opacity:1;stroke:#000000;stroke-width:0.5;stroke-linecap:butt;stroke-linejoin:miter;stroke-miterlimit:4;stroke-dasharray:none;stroke-opacity:1"
       x="68.898026"
       y="805.48724"
       id="text4258"
       sodipodi:linespacing="125%"
       transform="scale(1.0006996,0.99930089)"><tspan
         sodipodi:role="line"
         id="tspan4260"
         x="68.898026"
         y="805.48724"
         style="font-weight:bold;font-size:25px;fill:#ffffff;fill-opacity:1;stroke:#000000;stroke-width:0.5;stroke-miterlimit:4;stroke-dasharray:none;stroke-opacity:1">Master Control Program</tspan></text>
  </g>
</svg>
