<?xml version="1.0" encoding="UTF-8" standalone="no"?>
<!-- Created with Inkscape (http://www.inkscape.org/) -->

<svg
   xmlns:dc="http://purl.org/dc/elements/1.1/"
   xmlns:cc="http://creativecommons.org/ns#"
   xmlns:rdf="http://www.w3.org/1999/02/22-rdf-syntax-ns#"
   xmlns:svg="http://www.w3.org/2000/svg"
   xmlns="http://www.w3.org/2000/svg"
   xmlns:sodipodi="http://sodipodi.sourceforge.net/DTD/sodipodi-0.dtd"
   xmlns:inkscape="http://www.inkscape.org/namespaces/inkscape"
   width="800"
   height="250"
   viewBox="0 0 800 250.00002"
   id="svg2"
   version="1.1"
   inkscape:version="0.91 r13725"
   sodipodi:docname="logo-header.svg"
   inkscape:export-filename="/tmp/logo.png"
   inkscape:export-xdpi="90"
   inkscape:export-ydpi="90">
  <defs
     id="defs4">
    <clipPath
       id="clipPath4214"
       clipPathUnits="userSpaceOnUse">
      <path
         inkscape:connector-curvature="0"
         id="path4216"
         d="M 0,612 792,612 792,0 0,0 0,612 Z" />
    </clipPath>
  </defs>
  <sodipodi:namedview
     id="base"
     pagecolor="#ffffff"
     bordercolor="#666666"
     borderopacity="1.0"
     inkscape:pageopacity="0.0"
     inkscape:pageshadow="2"
     inkscape:zoom="0.98994949"
     inkscape:cx="331.72134"
     inkscape:cy="128.74471"
     inkscape:document-units="px"
     inkscape:current-layer="layer1"
     showgrid="false"
     fit-margin-top="0"
     fit-margin-left="0"
     fit-margin-right="0"
     fit-margin-bottom="0"
     units="px"
     inkscape:window-width="1476"
     inkscape:window-height="1103"
     inkscape:window-x="32"
     inkscape:window-y="0"
     inkscape:window-maximized="0"
     inkscape:snap-bbox="true"
     inkscape:bbox-nodes="true"
     inkscape:showpageshadow="false" />
  <metadata
     id="metadata7">
    <rdf:RDF>
      <cc:Work
         rdf:about="">
        <dc:format>image/svg+xml</dc:format>
        <dc:type
           rdf:resource="http://purl.org/dc/dcmitype/StillImage" />
        <dc:title></dc:title>
      </cc:Work>
    </rdf:RDF>
  </metadata>
  <g
     inkscape:label="Layer 1"
     inkscape:groupmode="layer"
     id="layer1"
     transform="translate(-255.78232,-484.10349)">
    <rect
       style="opacity:1;fill:#272b30;fill-opacity:1;stroke:none;stroke-width:2;stroke-linecap:round;stroke-linejoin:round;stroke-miterlimit:4;stroke-dasharray:none;stroke-dashoffset:0;stroke-opacity:1"
       id="rect4879"
       width="550.00006"
       height="250.00002"
       x="505.78229"
       y="484.10349"
       ry="0" />
    <rect
       style="opacity:1;fill:#ffffff;fill-opacity:1;stroke:none;stroke-width:2;stroke-linecap:round;stroke-linejoin:round;stroke-miterlimit:4;stroke-dasharray:none;stroke-dashoffset:0;stroke-opacity:1"
       id="rect4877"
       width="250.00002"
       height="250.00002"
       x="255.78229"
       y="484.10349"
       ry="0"
       rx="0" />
    <text
       xml:space="preserve"
       style="font-style:normal;font-weight:normal;font-size:77.16912079px;line-height:100%;font-family:sans-serif;letter-spacing:0px;word-spacing:0px;fill:#ffffff;fill-opacity:1;stroke:none;stroke-width:1.00000012;stroke-linecap:butt;stroke-linejoin:miter;stroke-miterlimit:4;stroke-dasharray:none;stroke-opacity:1"
       x="530.56238"
       y="595.99219"
       id="text4258"
       sodipodi:linespacing="100%"
       transform="scale(1.0006996,0.99930088)"><tspan
         sodipodi:role="line"
         id="tspan4260"
         x="530.56238"
         y="595.99219"
         style="font-weight:bold;font-size:59.36752701px;line-height:100%;fill:#ffffff;fill-opacity:1;stroke:none;stroke-width:1.00000012;stroke-miterlimit:4;stroke-dasharray:none;stroke-opacity:1">Master Control</tspan><tspan
         id="tspan4784"
         sodipodi:role="line"
         x="530.56238"
         y="655.35974"
         style="font-weight:bold;font-size:59.36752701px;line-height:100%;fill:#ffffff;fill-opacity:1;stroke:none;stroke-width:1.00000012;stroke-miterlimit:4;stroke-dasharray:none;stroke-opacity:1">Program</tspan></text>
    <g
       id="g4990"
       transform="matrix(1.22792,0,0,1.22792,-62.692931,-174.40689)">
      <g
         transform="matrix(0.70003808,0,0,0.70003808,59.224037,237.70408)"
         id="g4592">
        <path
           inkscape:connector-curvature="0"
           id="path4220"
           style="fill:#c4bebf;fill-opacity:1;fill-rule:nonzero;stroke:none"
           d="m 368.21985,473.88205 c -16.10251,9.08375 -24.07,28.5625 -18.03251,46.7725 6.03751,18.21125 24.065,29.07 42.405,26.73375 l -24.3725,-73.50625 z" />
        <path
           inkscape:connector-curvature="0"
           id="path4224"
           style="fill:#c4bebf;fill-opacity:1;fill-rule:nonzero;stroke:none"
           d="m 452.10271,607.12693 c -1.79125,2.49875 -4.67625,3.98 -7.75,3.98 l -26.07875,0 c -3.07375,0 -5.96,-1.48125 -7.75,-3.98 l -11.2225,-15.6575 64.02375,0 -11.2225,15.6575 z m 17.93125,-28.8875 0,-30.85 -77.44125,0 0,30.85 -8.15125,0 0,17.62 8.15125,0 0,7.87375 c 0,2.285 0.7425,4.50875 2.11625,6.33625 l 13.38125,17.78875 c 1.99125,2.6475 5.11125,4.205 8.42375,4.205 l 29.59875,0 c 3.3125,0 6.4325,-1.5575 8.42375,-4.205 l 13.38125,-17.78875 c 1.37375,-1.8275 2.11625,-4.05125 2.11625,-6.33625 l 0,-7.87375 8.15125,0 0,-17.62 -8.15125,0 z" />
        <path
           inkscape:connector-curvature="0"
           id="path4228"
           style="fill:#ffffff;fill-opacity:1;fill-rule:nonzero;stroke:none"
           d="m 450.06696,580.37943 c -7.20625,0 -13.04875,-5.8425 -13.04875,-13.04875 0,-7.20625 5.8425,-13.04875 13.04875,-13.04875 7.20625,0 13.04875,5.8425 13.04875,13.04875 0,7.20625 -5.8425,13.04875 -13.04875,13.04875" />
        <path
           inkscape:connector-curvature="0"
           id="path4232"
           style="fill:#ffffff;fill-opacity:1;fill-rule:nonzero;stroke:none"
           d="m 412.55946,554.28255 c 7.20625,0 13.04875,5.84125 13.04875,13.04875 0,7.20625 -5.8425,13.04875 -13.04875,13.04875 -7.20625,0 -13.04875,-5.8425 -13.04875,-13.04875 0,-7.2075 5.8425,-13.04875 13.04875,-13.04875" />
        <path
           inkscape:connector-curvature="0"
           id="path4246"
           style="fill:#ff522b;fill-opacity:1;fill-rule:nonzero;stroke:none"
           d="m 521.62021,573.7428 -10.15875,-6.67625 13.67875,-15.37875 -34.15375,13.53125 10.15875,6.67625 -13.67875,15.3775 34.15375,-13.53 z" />
        <path
           inkscape:connector-curvature="0"
           id="path4250"
           style="fill:#ff522b;fill-opacity:1;fill-rule:nonzero;stroke:none"
           d="m 341.00621,573.7428 10.15875,-6.67625 -13.67874,-15.37875 34.15375,13.53125 -10.15875,6.67625 13.67874,15.3775 -34.15375,-13.53 z" />
        <path
           inkscape:connector-curvature="0"
           id="path4254"
           style="fill:#4d4d4d;fill-opacity:1;fill-rule:nonzero;stroke:none"
           d="m 450.06696,560.56805 c -3.735,0 -6.7625,3.0275 -6.7625,6.7625 0,3.735 3.0275,6.76375 6.7625,6.76375 3.735,0 6.7625,-3.02875 6.7625,-6.76375 0,-3.735 -3.0275,-6.7625 -6.7625,-6.7625" />
        <path
           inkscape:connector-curvature="0"
           id="path4258"
           style="fill:#4d4d4d;fill-opacity:1;fill-rule:nonzero;stroke:none"
           d="m 412.55946,560.56805 c -3.735,0 -6.7625,3.0275 -6.7625,6.7625 0,3.735 3.0275,6.76375 6.7625,6.76375 3.735,0 6.7625,-3.02875 6.7625,-6.76375 0,-3.735 -3.0275,-6.7625 -6.7625,-6.7625" />
        <path
           inkscape:connector-curvature="0"
           id="path4262"
           style="fill:#4d4d4d;fill-opacity:1;fill-rule:nonzero;stroke:none"
           d="m 464.00446,460.0128 c -7.06125,-4.12 -16.12625,-1.735 -20.24625,5.32625 l -13.95249,23.6325 c -0.82376,1.4125 -0.34751,3.225 1.065,4.04875 1.4125,0.825 3.225,0.3475 4.04874,-1.065 l 10.30625,-17.665 c 0.825,-1.41125 2.6375,-1.88875 4.05,-1.065 1.41125,0.82375 1.88875,2.6375 1.065,4.04875 l -17.42375,29.865 c -0.82375,1.4125 -0.3475,3.22625 1.065,4.05 1.41251,0.82375 3.22625,0.34625 4.05001,-1.065 l 13.2425,-22.7 c 0.82375,-1.4125 2.63749,-1.88875 4.04874,-1.065 1.41251,0.82375 1.89,2.6375 1.06626,4.04875 l -4.15875,7.1275 c -0.82375,1.4125 -0.34625,3.225 1.06625,4.04875 1.4125,0.82375 3.225,0.3475 4.04875,-1.065 l 11.985,-20.26 c 4.12,-7.0625 1.735,-16.12625 -5.32625,-20.24625" />
        <path
           inkscape:connector-curvature="0"
           id="path4266"
           style="fill:#4d4d4d;fill-opacity:1;fill-rule:nonzero;stroke:none"
           d="m 416.89985,531.8473 c -2.5625,0 -4.64125,2.0775 -4.64125,4.64125 0,2.5625 2.07875,4.64 4.64125,4.64 2.5625,0 4.64,-2.0775 4.64,-4.64 0,-2.56375 -2.0775,-4.64125 -4.64,-4.64125" />
        <path
           inkscape:connector-curvature="0"
           id="path4270"
           style="fill:#4d4d4d;fill-opacity:1;fill-rule:nonzero;stroke:none"
           d="m 485.47347,492.92805 c -2.5625,0 -4.64,-2.0775 -4.64,-4.64125 0,-2.5625 2.0775,-4.64 4.64,-4.64 2.56249,0 4.64,2.0775 4.64,4.64 0,2.56375 -2.0775,4.64125 -4.64,4.64125 m 6.22875,-12.63875 -7.48,-2.06125 -6.7475,3.83125 -2.06125,7.48 3.83125,6.74625 7.48,2.06125 6.7475,-3.83125 2.06125,-7.48 -3.83125,-6.74625 z" />
        <path
           inkscape:connector-curvature="0"
           id="path4274"
           style="fill:#4d4d4d;fill-opacity:1;fill-rule:nonzero;stroke:none"
           d="m 422.07121,513.01193 c -1.74874,0 -3.1675,1.4175 -3.1675,3.1675 0,1.74875 1.41875,3.1675 3.1675,3.1675 1.74875,0 3.16751,-1.41875 3.16751,-3.1675 0,-1.75 -1.41875,-3.1675 -3.16751,-3.1675" />
        <path
           inkscape:connector-curvature="0"
           id="path4278"
           style="fill:#4d4d4d;fill-opacity:1;fill-rule:nonzero;stroke:none"
           d="m 401.77821,516.87793 c -4.23125,0 -7.66125,3.43 -7.66125,7.66125 0,4.23125 3.43,7.66125 7.66125,7.66125 4.23125,0 7.66125,-3.43 7.66125,-7.66125 0,-4.23125 -3.43,-7.66125 -7.66125,-7.66125" />
        <path
           inkscape:connector-curvature="0"
           id="path4282"
           style="fill:#4d4d4d;fill-opacity:1;fill-rule:nonzero;stroke:none"
           d="m 477.10935,529.13605 c -3.73875,1.9825 -8.37626,0.55875 -10.35875,-3.17875 -1.98125,-3.73875 -0.55875,-8.37625 3.18,-10.35875 3.7375,-1.9825 8.375,-0.55875 10.3575,3.17875 1.9825,3.73875 0.56,8.37625 -3.17875,10.35875 m 9.73125,-13.5625 -3.1325,-4.15125 1.565,-3.78125 -4.59375,-2.70125 -2.54375,3.20375 -5.15125,-0.72 -1.5675,-3.78 -5.1575,1.3375 0.46625,4.065 -4.15125,3.1325 -3.78,-1.56375 -2.7025,4.59375 3.20375,2.54375 -0.72,5.15 -3.77875,1.5675 1.3375,5.15875 4.06375,-0.4675 3.1325,4.15125 -1.56375,3.78125 4.59375,2.70125 2.54375,-3.20375 5.14999,0.72 1.5675,3.78 5.15875,-1.3375 -0.46625,-4.065 4.15125,-3.1325 3.78001,1.56375 2.7025,-4.5925 -3.20501,-2.545 0.72126,-5.15 3.77874,-1.5675 -1.3375,-5.15875 -4.065,0.4675 z" />
        <path
           inkscape:connector-curvature="0"
           id="path4286"
           style="fill:#4d4d4d;fill-opacity:1;fill-rule:nonzero;stroke:none"
           d="m 430.93259,525.24518 6.43876,9.58875 9.58749,-6.43875 -6.4375,-9.58875 -9.58875,6.43875 z" />
        <path
           inkscape:connector-curvature="0"
           id="path4290"
           style="fill:#4d4d4d;fill-opacity:1;fill-rule:nonzero;stroke:none"
           d="m 400.52909,492.6133 c -2.5625,0 -4.64,-2.0775 -4.64,-4.64125 0,-2.5625 2.0775,-4.64 4.64,-4.64 2.5625,0 4.64125,2.0775 4.64125,4.64 0,2.56375 -2.07875,4.64125 -4.64125,4.64125 m 15.82125,-8.4525 c -1.51749,-1.05125 -2.90875,-2.1375 -3.24,-2.78375 l 4.85375,-3.98875 -0.0725,-0.0875 c -2.13125,-2.5925 -5.48625,-3.84875 -8.79625,-3.3 -1.82125,0.3025 -3.59375,0.49125 -4.32625,0.25125 l 0.59501,-6.08875 -0.255,-0.0238 c -3.27375,-0.32 -6.47875,1.1 -8.445,3.7375 -1.115,1.49625 -2.28,2.89375 -2.97001,3.2475 l -3.76125,-4.57375 -0.002,0.002 c -2.65375,2.18 -3.995,5.575 -3.55875,8.98125 0.22501,1.74625 0.34375,3.43125 0.11375,4.18 l -5.77625,-0.565 0,0.004 c -0.335,3.425 1.125,6.78125 3.855,8.8775 1.40125,1.075 2.68375,2.175 3.0475,2.83875 l -4.51625,3.71125 0.002,0.004 c 2.17751,2.6475 5.58875,3.955 8.98001,3.44625 1.76125,-0.265 3.45999,-0.42375 4.20125,-0.21125 l -0.58375,5.98625 0.002,0 c 3.41,0.3325 6.73625,-1.19125 8.71625,-3.9875 1.05,-1.48375 2.1275,-2.8425 2.77125,-3.19375 l 3.94125,4.79375 0.002,-0.002 c 2.63625,-2.16625 3.88625,-5.5975 3.2675,-8.95375 -0.3325,-1.8025 -0.55,-3.5425 -0.33125,-4.25625 l 6.285,0.61375 0.002,-0.0238 c 0.33125,-3.39 -1.2025,-6.695 -4.0025,-8.635" />
        <path
           inkscape:connector-curvature="0"
           id="path4294"
           style="fill:#4d4d4d;fill-opacity:1;fill-rule:nonzero;stroke:none"
           d="m 431.55784,459.5758 c -1.7825,0.37875 -3.53625,-0.75875 -3.915,-2.54125 -0.33875,-1.5875 -1.89875,-2.6 -3.485,-2.2625 -1.5875,0.3375 -2.6,1.8975 -2.2625,3.485 0.38,1.7825 -0.75875,3.53625 -2.54125,3.915 -1.5875,0.3375 -2.6,1.8975 -2.2625,3.485 0.3375,1.5875 1.8975,2.6 3.485,2.2625 1.78375,-0.38 3.53625,0.75875 3.91501,2.54125 0.33875,1.5875 1.89875,2.6 3.485,2.2625 1.58749,-0.33875 2.6,-1.89875 2.2625,-3.485 -0.38,-1.78375 0.75875,-3.53625 2.54124,-3.91625 1.5875,-0.3375 2.60001,-1.8975 2.2625,-3.48375 -0.33749,-1.5875 -1.89749,-2.6 -3.485,-2.2625" />
      </g>
      <g
         transform="matrix(0.70003808,0,0,0.70003808,59.223989,237.70408)"
         id="g4611">
        <path
           d="m 466.11446,648.75893 12.39125,0 0,40.34375 -12.39125,0 0,-40.34375 z"
           style="fill:#ff522b;fill-opacity:1;fill-rule:nonzero;stroke:none"
           id="path4234"
           inkscape:connector-curvature="0" />
        <path
           inkscape:connector-curvature="0"
           id="path4238"
           style="fill:#ff522b;fill-opacity:1;fill-rule:nonzero;stroke:none"
           d="m 518.41121,686.7978 c -1.55625,1.55625 -3.68875,2.305 -7.89624,2.305 l -13.48626,0 c -4.2075,0 -6.3975,-0.74875 -7.95375,-2.305 -2.3625,-2.305 -4.38,-6.74375 -4.38,-17.86625 0,-11.12375 2.0175,-15.56125 4.38,-17.8675 1.55625,-1.55625 3.74625,-2.305 7.95375,-2.305 l 13.48626,0 c 4.20749,0 6.33999,0.74875 7.89624,2.305 2.0175,2.0175 2.9975,5.53375 3.1125,13.66 l -11.585,0 c -0.1725,-5.015 -0.63375,-5.76375 -0.98,-6.11 -0.345,-0.345 -0.92125,-0.46125 -2.65125,-0.46125 l -5.12875,0 c -1.72875,0 -2.305,0.11625 -2.65125,0.46125 -0.40375,0.40375 -1.095,1.49875 -1.095,10.3175 0,8.875 0.69125,9.9125 1.095,10.31625 0.34625,0.345 0.9225,0.46125 2.65125,0.46125 l 5.12875,0 c 1.73,0 2.30625,-0.11625 2.65125,-0.46125 0.34625,-0.34625 0.8075,-1.095 0.98,-6.2825 l 11.585,0 c -0.115,8.2425 -1.0375,11.815 -3.1125,13.8325" />
        <path
           inkscape:connector-curvature="0"
           id="path4242"
           style="fill:#ff522b;fill-opacity:1;fill-rule:nonzero;stroke:none"
           d="m 549.74034,658.21093 0,30.8925 -12.39125,0 0,-30.8925 -11.815,0 0,-9.4525 36.31,0 0,9.4525 -12.10375,0 z" />
        <path
           inkscape:connector-curvature="0"
           id="path4298"
           style="fill:#4d4d4d;fill-opacity:1;fill-rule:nonzero;stroke:none"
           d="m 348.84996,689.10305 -11.7,0 0,-24.4375 -0.57625,0 -7.26125,22.1325 c -0.5775,1.72875 -1.095,2.305 -2.59375,2.305 l -4.15,0 c -1.49874,0 -2.075,-0.63375 -2.59375,-2.305 l -7.26125,-22.1325 -0.57625,0 0,24.4375 -11.355,0 0,-40.34375 15.44625,0 c 1.78625,0 2.42125,0.57625 2.94,2.3625 l 5.59,18.3275 0.51875,0 5.245,-18.3275 c 0.51875,-1.78625 1.1525,-2.3625 2.93875,-2.3625 l 15.38875,0 0,40.34375 z" />
        <path
           inkscape:connector-curvature="0"
           id="path4302"
           style="fill:#4d4d4d;fill-opacity:1;fill-rule:nonzero;stroke:none"
           d="m 374.57071,680.28493 0,-4.0925 -3.57375,0 c -2.82375,0 -3.68875,0.17375 -4.265,0.75 -0.57625,0.57625 -0.63375,1.2675 -0.63375,2.1325 0,0.98 0.115,1.67125 0.57625,2.1325 0.46125,0.46125 1.1525,0.57625 2.075,0.57625 l 0.51875,0 c 1.32626,0 2.47875,-0.115 5.3025,-1.49875 m -16.42624,-22.68 c 1.32625,-1.32625 2.9975,-1.845 6.11,-1.845 l 13.48625,0 c 2.88125,0 5.1875,0.51875 6.51249,1.9025 1.38376,1.49875 1.96,3.3425 1.96,8.53 l 0,22.91 -11.6425,0 0,-3.4 c -3.86124,3.055 -5.5325,3.4575 -8.415,3.4575 l -3.86125,0 c -2.82375,0 -4.3225,-0.345 -5.58999,-1.6125 -1.09501,-1.095 -1.84501,-2.9975 -1.84501,-7.3775 0,-4.15 0.51875,-6.57 2.0175,-8.06875 1.55625,-1.55625 3.86125,-2.0175 7.665,-2.0175 2.9975,0 6.57126,0.34625 10.02875,0.98 l 0,-3.315 c 0,-2.53625 -0.115,-2.94 -0.51875,-3.34375 -0.34625,-0.345 -0.9225,-0.46 -1.90125,-0.46 l -2.7675,0 c -0.98,0 -1.55624,0.115 -1.90125,0.46 -0.40375,0.40375 -0.46125,0.6925 -0.51875,2.1325 l -10.77749,0 c 0.0575,-5.705 0.57625,-7.55 1.95875,-8.9325" />
        <path
           inkscape:connector-curvature="0"
           id="path4306"
           style="fill:#4d4d4d;fill-opacity:1;fill-rule:nonzero;stroke:none"
           d="m 392.66109,689.10305 0,-43.51375 11.7,0 0,23.45625 1.49875,0 8.6425,-13.285 12.10375,0 -10.94875,16.3975 10.835,16.945 -13.25625,0 -7.31875,-11.93 -1.55625,0 0,11.93 -11.7,0 z" />
        <path
           inkscape:connector-curvature="0"
           id="path4310"
           style="fill:#4d4d4d;fill-opacity:1;fill-rule:nonzero;stroke:none"
           d="m 442.06259,663.52455 5.2,0 c 1.42875,0 1.905,0.095 2.19125,0.38125 0.25876,0.25875 0.59625,0.7925 0.76376,3.98125 l -11.14626,0 c 0.18125,-3.1775 0.55501,-3.73625 0.80001,-3.98125 0.28625,-0.28625 0.76249,-0.38125 2.19125,-0.38125 m 17.775,5.43 0,0 c -0.095,-6.71625 -0.905,-9.62125 -2.5725,-11.28875 -1.28625,-1.28625 -3.04875,-1.905 -6.52625,-1.905 l -12.10625,0 c -3.47625,0 -5.28625,0.61875 -6.5725,1.905 -1.95375,1.905 -3.62,5.5725 -3.62,14.76625 0,9.1925 1.66625,12.86 3.62,14.76625 1.28625,1.285 3.09625,1.905 6.5725,1.905 l 12.10625,0 c 3.4775,0 5.24,-0.62 6.52625,-1.905 1.54375,-1.50125 2.315,-4.04625 2.52375,-9.5075 l -9.62,0 c -0.17875,2.56625 -0.48,3.03125 -0.715,3.2675 -0.28625,0.285 -0.7625,0.38125 -2.19125,0.38125 l -5.2,0 c -1.42875,0 -1.905,-0.0962 -2.19125,-0.38125 -0.3075,-0.3075 -0.81626,-1.065 -0.895,-6.9275 l 20.86125,0 0,-5.07625 z" />
      </g>
    </g>
  </g>
</svg>
